<svg xmlns="http://www.w3.org/2000/svg" xmlns:xlink="http://www.w3.org/1999/xlink" version="1.1" data-diagram-type="DESCRIPTION" style="width:2556px;height:1376px;background:#FFFFFF;" width="2556px" height="1376px" viewBox="0 0 2556 1376" zoomAndPan="magnify" preserveAspectRatio="none" contentStyleType="text/css"><?plantuml 1.2026.9beta4?><defs><filter id="bt2vw7nnamdvm0" x="0" y="0" width="1" height="1"><feFlood flood-color="#DCEEFF" result="flood"/><feComposite in="SourceGraphic" in2="flood" operator="over"/></filter><filter id="bt2vw7nnamdvm1" x="0" y="0" width="1" height="1"><feFlood flood-color="#E8F5E9" result="flood"/><feComposite in="SourceGraphic" in2="flood" operator="over"/></filter><filter id="bt2vw7nnamdvm2" x="0" y="0" width="1" height="1"><feFlood flood-color="#FCE4EC" result="flood"/><feComposite in="SourceGraphic" in2="flood" operator="over"/></filter><filter id="bt2vw7nnamdvm3" x="0" y="0" width="1" height="1"><feFlood flood-color="#FFF3E0" result="flood"/><feComposite in="SourceGraphic" in2="flood" operator="over"/></filter></defs><g font-family="sans-serif" lengthAdjust="spacing"><g class="title" data-source-line="1"><text x="1094.096" y="22.995" fill="#000" font-size="14" textLength="361.498" font-weight="700" font-family="Arial">Modelo arquitectónico TCP/IP - Plataforma IVI</text></g><!--cluster CAPA DE APLICACION--><g class="cluster" data-qualified-name="CAPA DE APLICACION" id="ent0001" data-source-line="38"><rect x="7" y="114.997" width="2535.69" height="367" fill="#DCEEFF" style="stroke:#34495E;stroke-width:1;" rx="6" ry="6"/><text x="1190.558" y="129.992" fill="#000" font-size="14" textLength="168.574" font-weight="700" font-family="Arial">CAPA DE APLICACION</text></g><!--cluster CAPA DE TRANSPORTE--><g class="cluster" data-qualified-name="CAPA DE TRANSPORTE" id="ent0023" data-source-line="63"><rect x="1206.34" y="740.997" width="1053.78" height="160" fill="#E8F5E9" style="stroke:#34495E;stroke-width:1;" rx="6" ry="6"/><text x="1644.151" y="755.992" fill="#000" font-size="14" textLength="178.158" font-weight="700" font-family="Arial">CAPA DE TRANSPORTE</text></g><!--cluster CAPA DE INTERNET--><g class="cluster" data-qualified-name="CAPA DE INTERNET" id="ent0029" data-source-line="72"><rect x="589.88" y="924.997" width="1384.87" height="160" fill="#FCE4EC" style="stroke:#34495E;stroke-width:1;" rx="6" ry="6"/><text x="1206.921" y="939.992" fill="#000" font-size="14" textLength="150.787" font-weight="700" font-family="Arial">CAPA DE INTERNET</text></g><!--cluster CAPA DE ACCESO A LA RED--><g class="cluster" data-qualified-name="CAPA DE ACCESO A LA RED" id="ent0035" data-source-line="81"><rect x="244.65" y="505.997" width="1184.59" height="211" fill="#FFF3E0" style="stroke:#34495E;stroke-width:1;" rx="6" ry="6"/><text x="730.321" y="520.992" fill="#000" font-size="14" textLength="213.247" font-weight="700" font-family="Arial">CAPA DE ACCESO A LA RED</text></g><!--entity USER--><g class="entity" data-qualified-name="CAPA DE APLICACION.USER" id="ent0002" data-source-line="39"><ellipse cx="49.602" cy="379.347" rx="8" ry="8" fill="#F1F1F1" style="stroke:#181818;stroke-width:0.5;"/><path d="M49.602,387.347 L49.602,414.347 M36.602,395.347 L62.602,395.347 M49.602,414.347 L36.602,429.347 M49.602,414.347 L62.602,429.347" style="stroke:#181818;stroke-width:0.5;" fill="none"/><text x="23" y="443.842" fill="#000" font-size="14" textLength="53.204" font-family="Arial">Usuario</text></g><!--entity BROWSER--><g class="entity" data-qualified-name="CAPA DE APLICACION.BROWSER" id="ent0003" data-source-line="40"><rect x="253.2" y="325.697" width="180.679" height="52.594" fill="#FFF" style="stroke:#34495E;stroke-width:0.5;" rx="6" ry="6"/><text x="288.527" y="348.692" fill="#000" font-size="14" textLength="110.024" font-family="Arial">Navegador web</text><text x="263.2" y="364.989" fill="#000" font-size="14" textLength="160.679" font-family="Arial">Cliente SPA React 19.2</text></g><!--entity PAGES--><g class="entity" data-qualified-name="CAPA DE APLICACION.PAGES" id="ent0004" data-source-line="41"><rect x="636.45" y="237.697" width="208.193" height="52.594" fill="#FFF" style="stroke:#34495E;stroke-width:0.5;" rx="6" ry="6"/><text x="693.157" y="260.692" fill="#000" font-size="14" textLength="94.78" font-family="Arial">GitHub Pages</text><text x="646.45" y="276.989" fill="#000" font-size="14" textLength="188.193" font-family="Arial">nestorzalazar.github.io/IVI/</text></g><!--entity FETCH--><g class="entity" data-qualified-name="CAPA DE APLICACION.FETCH" id="ent0005" data-source-line="42"><rect x="647.42" y="149.697" width="186.25" height="52.594" fill="#FFF" style="stroke:#34495E;stroke-width:0.5;" rx="6" ry="6"/><text x="721.182" y="172.692" fill="#000" font-size="14" textLength="38.726" font-family="Arial">Fetch</text><text x="657.42" y="188.989" fill="#000" font-size="14" textLength="166.25" font-family="Arial">Solicitudes del frontend</text></g><!--entity HTTP--><g class="entity" data-qualified-name="CAPA DE APLICACION.HTTP" id="ent0006" data-source-line="43"><rect x="1267.39" y="255.697" width="114.65" height="52.594" fill="#FFF" style="stroke:#34495E;stroke-width:0.5;" rx="6" ry="6"/><text x="1277.39" y="278.692" fill="#000" font-size="14" textLength="94.65" font-family="Arial">HTTP / HTTPS</text><text x="1307.461" y="294.989" fill="#000" font-size="14" textLength="34.508" font-family="Arial">JSON</text></g><!--entity API--><g class="entity" data-qualified-name="CAPA DE APLICACION.API" id="ent0007" data-source-line="44"><rect x="1719.17" y="275.697" width="228.626" height="52.594" fill="#FFF" style="stroke:#34495E;stroke-width:0.5;" rx="6" ry="6"/><text x="1802.178" y="298.692" fill="#000" font-size="14" textLength="62.61" font-family="Arial">API REST</text><text x="1729.17" y="314.989" fill="#000" font-size="14" textLength="208.626" font-family="Arial">Django REST Framework 3.14</text></g><!--entity BACKEND--><g class="entity" data-qualified-name="CAPA DE APLICACION.BACKEND" id="ent0008" data-source-line="45"><rect x="2077.88" y="334.697" width="161.101" height="52.594" fill="#FFF" style="stroke:#34495E;stroke-width:0.5;" rx="6" ry="6"/><text x="2087.88" y="357.692" fill="#000" font-size="14" textLength="141.101" font-family="Arial">Backend Django 4.2</text><text x="2099.146" y="373.989" fill="#000" font-size="14" textLength="118.569" font-family="Arial">PythonAnywhere</text></g><!--entity DB--><g class="entity" data-qualified-name="CAPA DE APLICACION.DB" id="ent0009" data-source-line="46"><path d="M2388.12,340.197 C2388.12,330.197 2457.405,330.197 2457.405,330.197 C2457.405,330.197 2526.689,330.197 2526.689,340.197 L2526.689,381.791 C2526.689,391.791 2457.405,391.791 2457.405,391.791 C2457.405,391.791 2388.12,391.791 2388.12,381.791 L2388.12,340.197" style="stroke:#34495E;stroke-width:0.5;" fill="#FFF"/><path d="M2388.12,340.197 C2388.12,350.197 2457.405,350.197 2457.405,350.197 C2457.405,350.197 2526.689,350.197 2526.689,340.197" style="stroke:#34495E;stroke-width:0.5;" fill="none"/><text x="2434.556" y="367.192" fill="#000" font-size="14" textLength="45.698" font-family="Arial">SQLite</text><text x="2398.12" y="383.489" fill="#000" font-size="14" textLength="118.569" font-family="Arial">PythonAnywhere</text></g><!--entity AUTH--><g class="entity" data-qualified-name="CAPA DE APLICACION.AUTH" id="ent0010" data-source-line="47"><rect x="1220.7" y="149.547" width="208.036" height="68.891" fill="#FFF" style="stroke:#34495E;stroke-width:0.5;" rx="6" ry="6"/><text x="1276.665" y="172.542" fill="#000" font-size="14" textLength="96.106" font-family="Arial">Autenticacion</text><text x="1249.789" y="188.839" fill="#000" font-size="14" textLength="149.857" font-family="Arial">Authorization: Bearer</text><text x="1235.15" y="205.136" fill="#000" font-size="14" textLength="183.586" font-family="Arial">token_&lt;id>_&lt;username></text></g><!--entity OCR--><g class="entity" data-qualified-name="CAPA DE APLICACION.OCR" id="ent0011" data-source-line="48"><rect x="690.32" y="413.697" width="100.459" height="52.594" fill="#FFF" style="stroke:#34495E;stroke-width:0.5;" rx="6" ry="6"/><text x="725.288" y="436.692" fill="#000" font-size="14" textLength="30.522" font-family="Arial">OCR</text><text x="700.32" y="452.989" fill="#000" font-size="14" textLength="80.459" font-family="Arial">tesseract.js</text></g><!--entity TTS--><g class="entity" data-qualified-name="CAPA DE APLICACION.TTS" id="ent0012" data-source-line="49"><rect x="671.81" y="325.697" width="137.476" height="52.594" fill="#FFF" style="stroke:#34495E;stroke-width:0.5;" rx="6" ry="6"/><text x="699.956" y="348.692" fill="#000" font-size="14" textLength="81.184" font-family="Arial">Texto a voz</text><text x="681.81" y="364.989" fill="#000" font-size="14" textLength="117.476" font-family="Arial">speechSynthesis</text></g><!--entity TCP--><g class="entity" data-qualified-name="CAPA DE TRANSPORTE.TCP" id="ent0024" data-source-line="64"><rect x="1222.34" y="823.697" width="204.748" height="52.594" fill="#FFF" style="stroke:#34495E;stroke-width:0.5;" rx="6" ry="6"/><text x="1311.329" y="846.692" fill="#000" font-size="14" textLength="26.77" font-family="Arial">TCP</text><text x="1232.34" y="862.989" fill="#000" font-size="14" textLength="184.748" font-family="Arial">Conexion orientada a flujo</text></g><!--entity TLS--><g class="entity" data-qualified-name="CAPA DE TRANSPORTE.TLS" id="ent0025" data-source-line="65"><rect x="1762.61" y="775.697" width="141.741" height="52.594" fill="#FFF" style="stroke:#34495E;stroke-width:0.5;" rx="6" ry="6"/><text x="1820.861" y="798.692" fill="#000" font-size="14" textLength="25.238" font-family="Arial">TLS</text><text x="1772.61" y="814.989" fill="#000" font-size="14" textLength="121.741" font-family="Arial">Cifrado de HTTPS</text></g><!--entity PORT--><g class="entity" data-qualified-name="CAPA DE TRANSPORTE.PORT" id="ent0026" data-source-line="66"><rect x="2072.75" y="804.697" width="171.368" height="52.594" fill="#FFF" style="stroke:#34495E;stroke-width:0.5;" rx="6" ry="6"/><text x="2119.979" y="827.692" fill="#000" font-size="14" textLength="76.911" font-family="Arial">Puerto 443</text><text x="2082.75" y="843.989" fill="#000" font-size="14" textLength="151.368" font-family="Arial">Comunicacion segura</text></g><!--entity IP--><g class="entity" data-qualified-name="CAPA DE INTERNET.IP" id="ent0030" data-source-line="73"><rect x="1196.79" y="961.697" width="255.847" height="52.594" fill="#FFF" style="stroke:#34495E;stroke-width:0.5;" rx="6" ry="6"/><text x="1318.428" y="984.692" fill="#000" font-size="14" textLength="12.571" font-family="Arial">IP</text><text x="1206.79" y="1000.989" fill="#000" font-size="14" textLength="235.847" font-family="Arial">Direccionamiento y enrutamiento</text></g><!--entity DNS--><g class="entity" data-qualified-name="CAPA DE INTERNET.DNS" id="ent0031" data-source-line="74"><rect x="605.88" y="959.547" width="269.334" height="68.891" fill="#FFF" style="stroke:#34495E;stroke-width:0.5;" rx="6" ry="6"/><text x="725.477" y="982.542" fill="#000" font-size="14" textLength="30.14" font-family="Arial">DNS</text><text x="660.085" y="998.839" fill="#000" font-size="14" textLength="160.925" font-family="Arial">nestorzalazar.github.io</text><text x="620.33" y="1015.136" fill="#000" font-size="14" textLength="244.884" font-family="Arial">danzgamer1.pythonanywhere.com</text></g><!--entity ROUTING--><g class="entity" data-qualified-name="CAPA DE INTERNET.ROUTING" id="ent0032" data-source-line="75"><rect x="1708.21" y="972.697" width="250.535" height="52.594" fill="#FFF" style="stroke:#34495E;stroke-width:0.5;" rx="6" ry="6"/><text x="1764.616" y="995.692" fill="#000" font-size="14" textLength="137.724" font-family="Arial">Rutas entre cliente,</text><text x="1718.21" y="1011.989" fill="#000" font-size="14" textLength="230.535" font-family="Arial">GitHub Pages y PythonAnywhere</text></g><!--entity CLIENT_NET--><g class="entity" data-qualified-name="CAPA DE ACCESO A LA RED.CLIENT_NET" id="ent0036" data-source-line="82"><rect x="260.65" y="542.697" width="165.783" height="52.594" fill="#FFF" style="stroke:#34495E;stroke-width:0.5;" rx="6" ry="6"/><text x="270.65" y="565.692" fill="#000" font-size="14" textLength="145.783" font-family="Arial">Wi-Fi / datos moviles</text><text x="318.97" y="581.989" fill="#000" font-size="14" textLength="49.144" font-family="Arial">Cliente</text></g><!--entity GH_NET--><g class="entity" data-qualified-name="CAPA DE ACCESO A LA RED.GH_NET" id="ent0037" data-source-line="83"><path d="M1245.032,550.146 C1247.422,544.369 1252.997,544.982 1256.119,549.346 C1259.491,543.706 1265.275,544.91 1267.862,550.19 C1271.496,542.932 1275.529,543.35 1280.617,548.721 C1284.169,543.555 1288.099,545.016 1290.751,549.653 C1294.407,543.166 1298.485,544.55 1302.569,549.199 C1305.229,544.042 1310.153,543.496 1314.041,547.692 C1318.445,542.655 1322.074,542.983 1325.828,548.423 C1328.904,542.904 1333.536,542.062 1337.353,547.654 C1342.061,542.742 1346.156,542.574 1348.913,549.551 C1351.807,544.564 1355.702,543.749 1359.704,548.297 C1364.997,542.983 1368.957,543.621 1372.721,550 C1376.522,544.546 1380.499,544.851 1384.253,550.05 C1387.882,545.22 1390.878,545.746 1394.214,550.359 C1398.202,544.447 1401.902,544.483 1406.485,549.703 C1411.621,552.865 1411.953,557.525 1407.386,561.432 C1414.089,564.835 1414.618,569.153 1408.744,573.923 C1414.474,577.973 1413.98,582.657 1407.72,585.662 C1412.792,589.441 1411.624,594.088 1405.998,596.102 C1402.716,600.832 1398.055,600.545 1395.08,595.749 C1392.12,600.963 1387.575,602.143 1383.312,597.269 C1380.591,602.714 1375.512,603.413 1372.163,597.91 C1367.726,603.965 1362.885,603.768 1359.251,597.095 C1355.788,601.623 1352.284,602.588 1348.46,597.5 C1346.18,602.363 1342.328,603.864 1338.133,599.687 C1333.585,605.139 1329.984,604.938 1326.896,598.326 C1323.614,605.828 1317.733,604.552 1313.499,599.328 C1309.22,604.803 1305.569,603.579 1302.602,598.031 C1298.682,603.49 1293.787,604.478 1290.291,597.608 C1286.501,602.492 1282.457,601.974 1278.983,597.236 C1275.389,602.954 1271.75,603.335 1267.562,597.841 C1263.25,603.387 1259.143,603.091 1256.188,596.563 C1252.848,601.99 1247.774,602.63 1244.416,596.581 C1237.62,595.248 1237.067,590.388 1241.175,585.782 C1234.557,583.665 1232.592,578.382 1238.18,573.33 C1234.482,568.226 1236.221,563.963 1242.253,562.527 C1237.645,556.988 1237.938,553.058 1245.032,550.146" style="stroke:#34495E;stroke-width:0.5;" fill="#FFF"/><text x="1251.19" y="568.692" fill="#000" font-size="14" textLength="147.048" font-family="Arial">Infraestructura cloud</text><text x="1277.324" y="584.989" fill="#000" font-size="14" textLength="94.78" font-family="Arial">GitHub Pages</text></g><!--entity PA_NET--><g class="entity" data-qualified-name="CAPA DE ACCESO A LA RED.PA_NET" id="ent0038" data-source-line="84"><path d="M1245.032,648.146 C1247.422,642.369 1252.997,642.982 1256.119,647.346 C1259.491,641.706 1265.275,642.91 1267.862,648.19 C1271.496,640.932 1275.529,641.35 1280.617,646.721 C1284.169,641.555 1288.099,643.016 1290.751,647.653 C1294.407,641.166 1298.485,642.55 1302.569,647.199 C1305.229,642.042 1310.153,641.496 1314.041,645.692 C1318.445,640.655 1322.074,640.983 1325.828,646.423 C1328.904,640.904 1333.536,640.062 1337.353,645.654 C1342.061,640.742 1346.156,640.574 1348.913,647.551 C1351.807,642.564 1355.702,641.749 1359.704,646.297 C1364.997,640.983 1368.957,641.621 1372.721,648 C1376.522,642.546 1380.499,642.851 1384.253,648.05 C1387.882,643.22 1390.878,643.746 1394.214,648.359 C1398.202,642.447 1401.902,642.483 1406.485,647.703 C1411.621,650.865 1411.953,655.525 1407.386,659.432 C1414.089,662.835 1414.618,667.153 1408.744,671.923 C1414.474,675.973 1413.98,680.657 1407.72,683.662 C1412.792,687.441 1411.624,692.088 1405.998,694.102 C1402.716,698.832 1398.055,698.545 1395.08,693.749 C1392.12,698.963 1387.575,700.143 1383.312,695.269 C1380.591,700.714 1375.512,701.413 1372.163,695.91 C1367.726,701.965 1362.885,701.768 1359.251,695.095 C1355.788,699.623 1352.284,700.588 1348.46,695.5 C1346.18,700.363 1342.328,701.864 1338.133,697.687 C1333.585,703.139 1329.984,702.938 1326.896,696.326 C1323.614,703.828 1317.733,702.552 1313.499,697.328 C1309.22,702.803 1305.569,701.579 1302.602,696.031 C1298.682,701.49 1293.787,702.478 1290.291,695.608 C1286.501,700.492 1282.457,699.974 1278.983,695.236 C1275.389,700.954 1271.75,701.335 1267.562,695.841 C1263.25,701.387 1259.143,701.091 1256.188,694.563 C1252.848,699.99 1247.774,700.63 1244.416,694.581 C1237.62,693.248 1237.067,688.388 1241.175,683.782 C1234.557,681.665 1232.592,676.382 1238.18,671.33 C1234.482,666.226 1236.221,661.963 1242.253,660.527 C1237.645,654.988 1237.938,651.058 1245.032,648.146" style="stroke:#34495E;stroke-width:0.5;" fill="#FFF"/><text x="1251.19" y="666.692" fill="#000" font-size="14" textLength="147.048" font-family="Arial">Infraestructura cloud</text><text x="1265.429" y="682.989" fill="#000" font-size="14" textLength="118.569" font-family="Arial">PythonAnywhere</text></g><!--entity LINK--><g class="entity" data-qualified-name="CAPA DE ACCESO A LA RED.LINK" id="ent0039" data-source-line="85"><rect x="654.13" y="545.697" width="172.845" height="52.594" fill="#FFF" style="stroke:#34495E;stroke-width:0.5;" rx="6" ry="6"/><text x="664.13" y="568.692" fill="#000" font-size="14" textLength="152.845" font-family="Arial">Enlace fisico y acceso</text><text x="710.297" y="584.989" fill="#000" font-size="14" textLength="60.512" font-family="Arial">al medio</text></g><g class="entity" data-qualified-name="GMN54" id="ent0055" data-source-line="105"><path d="M1110.22,43.297 L1110.22,98.695 L1539.216,98.695 L1539.216,53.297 L1529.216,43.297 L1110.22,43.297" style="stroke:#C9A227;stroke-width:0.5;" fill="#FFF8DC"/><path d="M1529.216,43.297 L1529.216,53.297 L1539.216,53.297 L1529.216,43.297" style="stroke:#C9A227;stroke-width:1;" fill="#FFF8DC"/><text x="1272.496" y="60.364" fill="#000" font-size="13" textLength="95.443" font-family="Arial">Flujo principal:</text><text x="1116.22" y="75.497" fill="#000" font-size="13" textLength="407.996" font-family="Arial">Usuario -> navegador -> GitHub Pages -> Fetch -> HTTPS/TLS</text><text x="1146.403" y="90.629" fill="#000" font-size="13" textLength="347.629" font-family="Arial">-> TCP/IP -> API REST en PythonAnywhere -> SQLite.</text></g><!--link USER to BROWSER--><g class="link" data-entity-1="ent0002" data-entity-2="ent0003" id="lnk13" data-source-line="51" data-link-type="dependency"><path d="M76.51,403.937 C115.72,396.277 187.123,382.345 247.993,370.455" style="stroke:#34495E;stroke-width:1.5;" fill="none" id="USER-to-BROWSER"/><polygon points="252.9,369.497,243.3,367.296,247.993,370.455,244.834,375.148,252.9,369.497" fill="#34495E" style="stroke:#34495E;stroke-width:1.5;stroke-linejoin:miter;stroke-miterlimit:10;"/><text x="128.7" y="372.064" fill="#000" font-size="13" textLength="72.579" font-family="Arial">Interaccion</text></g><!--link BROWSER to PAGES--><g class="link" data-entity-1="ent0003" data-entity-2="ent0004" id="lnk14" data-source-line="52" data-link-type="dependency"><path d="M434.18,332.027 C494.16,318.667 568.4,302.124 631.08,288.164" style="stroke:#34495E;stroke-width:1.5;" fill="none" id="BROWSER-to-PAGES"/><polygon points="635.96,287.077,626.306,285.129,631.08,288.164,628.045,292.938,635.96,287.077" fill="#34495E" style="stroke:#34495E;stroke-width:1.5;stroke-linejoin:miter;stroke-miterlimit:10;"/><text x="467.38" y="299.064" fill="#000" font-size="13" textLength="103.816" font-family="Arial">Carga de la SPA</text></g><!--link BROWSER to FETCH--><g class="link" data-entity-1="ent0003" data-entity-2="ent0005" id="lnk15" data-source-line="53" data-link-type="dependency"><path d="M385.37,325.297 C408.15,310.757 437.23,292.767 463.88,277.997 C515,249.677 527.28,240.827 581.88,219.997 C602.73,212.047 620.801,206.195 642.521,200.015" style="stroke:#34495E;stroke-width:1.5;" fill="none" id="BROWSER-to-FETCH"/><polygon points="647.33,198.647,637.579,197.263,642.521,200.015,639.768,204.957,647.33,198.647" fill="#34495E" style="stroke:#34495E;stroke-width:1.5;stroke-linejoin:miter;stroke-miterlimit:10;"/><text x="494.88" y="220.064" fill="#000" font-size="13" textLength="48.274" font-family="Arial">Ejecuta</text></g><!--link FETCH to HTTP--><g class="link" data-entity-1="ent0005" data-entity-2="ent0006" id="lnk16" data-source-line="54" data-link-type="dependency"><path d="M834.16,192.997 C857.36,197.247 882.2,201.797 905.22,205.997 C1034.71,229.617 1181.85,256.306 1262.27,270.866" style="stroke:#34495E;stroke-width:1.5;" fill="none" id="FETCH-to-HTTP"/><polygon points="1267.19,271.757,1259.047,266.217,1262.27,270.866,1257.621,274.09,1267.19,271.757" fill="#34495E" style="stroke:#34495E;stroke-width:1.5;stroke-linejoin:miter;stroke-miterlimit:10;"/><text x="975.22" y="202.064" fill="#000" font-size="13" textLength="35.725" font-family="Arial">Envia</text></g><!--link HTTP to API--><g class="link" data-entity-1="ent0006" data-entity-2="ent0007" id="lnk17" data-source-line="55" data-link-type="dependency"><path d="M1382.37,284.227 C1463.41,287.427 1609.154,293.18 1713.744,297.31" style="stroke:#34495E;stroke-width:1.5;" fill="none" id="HTTP-to-API"/><polygon points="1718.74,297.507,1709.905,293.155,1713.744,297.31,1709.589,301.149,1718.74,297.507" fill="#34495E" style="stroke:#34495E;stroke-width:1.5;stroke-linejoin:miter;stroke-miterlimit:10;"/><text x="1593.71" y="288.064" fill="#000" font-size="13" textLength="60.944" font-family="Arial">Consume</text></g><!--link API to BACKEND--><g class="link" data-entity-1="ent0007" data-entity-2="ent0008" id="lnk18" data-source-line="56" data-link-type="dependency"><path d="M1947.89,322.717 C1990.78,330.547 2033.731,338.399 2072.881,345.549" style="stroke:#34495E;stroke-width:1.5;" fill="none" id="API-to-BACKEND"/><polygon points="2077.8,346.447,2069.665,340.895,2072.881,345.549,2068.228,348.765,2077.8,346.447" fill="#34495E" style="stroke:#34495E;stroke-width:1.5;stroke-linejoin:miter;stroke-miterlimit:10;"/><text x="1995.25" y="328.064" fill="#000" font-size="13" textLength="43.101" font-family="Arial">Enruta</text></g><!--link BACKEND to DB--><g class="link" data-entity-1="ent0008" data-entity-2="ent0009" id="lnk19" data-source-line="57" data-link-type="dependency"><path d="M2239.4,360.997 C2285.79,360.997 2338.6,360.997 2382.88,360.997" style="stroke:#34495E;stroke-width:1.5;" fill="none" id="BACKEND-to-DB"/><polygon points="2387.88,360.997,2378.88,356.997,2382.88,360.997,2378.88,364.997,2387.88,360.997" fill="#34495E" style="stroke:#34495E;stroke-width:1.5;stroke-linejoin:miter;stroke-miterlimit:10;"/><text x="2277.12" y="357.064" fill="#000" font-size="13" textLength="80.647" font-family="Arial">Django ORM</text></g><!--link FETCH to AUTH--><g class="link" data-entity-1="ent0005" data-entity-2="ent0010" id="lnk20" data-source-line="58" data-link-type="dependency"><path d="M834.12,177.267 C939.35,178.717 1105.68,180.998 1215.24,182.508" style="stroke:#34495E;stroke-width:1.5;" fill="none" id="FETCH-to-AUTH"/><polygon points="1220.24,182.577,1211.296,178.453,1215.24,182.508,1211.186,186.452,1220.24,182.577" fill="#34495E" style="stroke:#34495E;stroke-width:1.5;stroke-linejoin:miter;stroke-miterlimit:10;"/><text x="949.22" y="175.064" fill="#000" font-size="13" textLength="87.655" font-family="Arial">Agrega token</text></g><!--link BROWSER to OCR--><g class="link" data-entity-1="ent0003" data-entity-2="ent0011" id="lnk21" data-source-line="59" data-link-type="dependency"><path d="M434.18,371.967 C513.39,389.607 621.12,413.61 685.13,427.87" style="stroke:#34495E;stroke-width:1.5;" fill="none" id="BROWSER-to-OCR"/><polygon points="690.01,428.957,682.095,423.096,685.13,427.87,680.356,430.904,690.01,428.957" fill="#34495E" style="stroke:#34495E;stroke-width:1.5;stroke-linejoin:miter;stroke-miterlimit:10;"/><text x="467.38" y="377.064" fill="#000" font-size="13" textLength="103.886" font-family="Arial">Procesa imagen</text></g><!--link BROWSER to TTS--><g class="link" data-entity-1="ent0003" data-entity-2="ent0012" id="lnk22" data-source-line="60" data-link-type="dependency"><path d="M434.18,351.997 C506.22,351.997 600.89,351.997 666.49,351.997" style="stroke:#34495E;stroke-width:1.5;" fill="none" id="BROWSER-to-TTS"/><polygon points="671.49,351.997,662.49,347.997,666.49,351.997,662.49,355.997,671.49,351.997" fill="#34495E" style="stroke:#34495E;stroke-width:1.5;stroke-linejoin:miter;stroke-miterlimit:10;"/><text x="464.88" y="348.064" fill="#000" font-size="13" textLength="108.189" font-family="Arial">Reproduce texto</text></g><!--link TCP to TLS--><g class="link" data-entity-1="ent0024" data-entity-2="ent0025" id="lnk27" data-source-line="68" data-link-type="dependency"><path d="M1427.44,859.827 C1498.22,864.487 1594.53,866.467 1678.21,852.997 C1708.15,848.177 1735.443,840.095 1762.493,830.395" style="stroke:#34495E;stroke-width:1.5;" fill="none" id="TCP-to-TLS"/><polygon points="1767.2,828.707,1757.378,827.98,1762.493,830.395,1760.078,835.51,1767.2,828.707" fill="#34495E" style="stroke:#34495E;stroke-width:1.5;stroke-linejoin:miter;stroke-miterlimit:10;"/><text x="1588.71" y="849.064" fill="#000" font-size="13" textLength="70.878" font-family="Arial">Transporta</text></g><!--link TLS to TCP--><g class="link" data-entity-1="ent0025" data-entity-2="ent0024" id="lnk46" data-source-line="95" data-link-type="dependency"><path d="M1762.35,808.637 C1675.46,816.867 1531.728,830.486 1432.328,839.896" style="stroke:#34495E;stroke-width:1.5;" fill="none" id="TLS-to-TCP"/><polygon points="1427.35,840.367,1436.687,843.501,1432.328,839.896,1435.933,835.536,1427.35,840.367" fill="#34495E" style="stroke:#34495E;stroke-width:1.5;stroke-linejoin:miter;stroke-miterlimit:10;"/><text x="1611.71" y="813.064" fill="#000" font-size="13" textLength="24.254" font-family="Arial">Usa</text></g><!--link TLS to PORT--><g class="link" data-entity-1="ent0025" data-entity-2="ent0026" id="lnk28" data-source-line="69" data-link-type="dependency"><path d="M1904.56,808.287 C1953.81,812.707 2015,818.21 2067.3,822.9" style="stroke:#34495E;stroke-width:1.5;" fill="none" id="TLS-to-PORT"/><polygon points="2072.28,823.347,2063.673,818.559,2067.3,822.9,2062.959,826.527,2072.28,823.347" fill="#34495E" style="stroke:#34495E;stroke-width:1.5;stroke-linejoin:miter;stroke-miterlimit:10;"/><text x="1991.75" y="812.064" fill="#000" font-size="13" textLength="50.483" font-family="Arial">Protege</text></g><!--link DNS to IP--><g class="link" data-entity-1="ent0031" data-entity-2="ent0030" id="lnk33" data-source-line="77" data-link-type="dependency"><path d="M875.48,992.617 C972,991.617 1096.46,990.338 1191.43,989.358" style="stroke:#34495E;stroke-width:1.5;" fill="none" id="DNS-to-IP"/><polygon points="1196.43,989.307,1187.389,985.4,1191.43,989.358,1187.472,993.4,1196.43,989.307" fill="#34495E" style="stroke:#34495E;stroke-width:1.5;stroke-linejoin:miter;stroke-miterlimit:10;"/><text x="931.72" y="986.064" fill="#000" font-size="13" textLength="122.535" font-family="Arial">Resuelve dominios</text></g><!--link IP to ROUTING--><g class="link" data-entity-1="ent0030" data-entity-2="ent0032" id="lnk34" data-source-line="78" data-link-type="dependency"><path d="M1421.35,1014.777 C1492.19,1031.337 1591.12,1047.567 1678.21,1036.997 C1698.2,1034.567 1714.461,1031.574 1734.461,1026.904" style="stroke:#34495E;stroke-width:1.5;" fill="none" id="IP-to-ROUTING"/><polygon points="1739.33,1025.767,1729.656,1023.918,1734.461,1026.904,1731.475,1031.709,1739.33,1025.767" fill="#34495E" style="stroke:#34495E;stroke-width:1.5;stroke-linejoin:miter;stroke-miterlimit:10;"/><text x="1570.21" y="1033.064" fill="#000" font-size="13" textLength="107.809" font-family="Arial">Enruta paquetes</text></g><!--link ROUTING to IP--><g class="link" data-entity-1="ent0032" data-entity-2="ent0030" id="lnk52" data-source-line="101" data-link-type="dependency"><path d="M1707.83,996.287 C1630.32,994.607 1535.929,992.555 1457.939,990.865" style="stroke:#34495E;stroke-width:1.5;" fill="none" id="ROUTING-to-IP"/><polygon points="1452.94,990.757,1461.851,994.951,1457.939,990.865,1462.025,986.953,1452.94,990.757" fill="#34495E" style="stroke:#34495E;stroke-width:1.5;stroke-linejoin:miter;stroke-miterlimit:10;"/><text x="1589.21" y="989.064" fill="#000" font-size="13" textLength="69.031" font-family="Arial">Direcciona</text></g><!--link CLIENT_NET to LINK--><g class="link" data-entity-1="ent0036" data-entity-2="ent0039" id="lnk40" data-source-line="87" data-link-type="dependency"><path d="M426.87,569.617 C493.34,570.127 581.58,570.799 648.92,571.309" style="stroke:#34495E;stroke-width:1.5;" fill="none" id="CLIENT_NET-to-LINK"/><polygon points="653.92,571.347,644.951,567.279,648.92,571.309,644.89,575.279,653.92,571.347" fill="#34495E" style="stroke:#34495E;stroke-width:1.5;stroke-linejoin:miter;stroke-miterlimit:10;"/><text x="496.38" y="566.064" fill="#000" font-size="13" textLength="45.913" font-family="Arial">Acceso</text></g><!--link LINK to GH_NET--><g class="link" data-entity-1="ent0039" data-entity-2="ent0037" id="lnk41" data-source-line="88" data-link-type="dependency"><path d="M827.45,571.997 C937.04,571.997 1120.59,571.997 1231.03,571.997" style="stroke:#34495E;stroke-width:1.5;" fill="none" id="LINK-to-GH_NET"/><polygon points="1236.03,571.997,1227.03,567.997,1231.03,571.997,1227.03,575.997,1236.03,571.997" fill="#34495E" style="stroke:#34495E;stroke-width:1.5;stroke-linejoin:miter;stroke-miterlimit:10;"/><text x="950.72" y="568.064" fill="#000" font-size="13" textLength="84.9" font-family="Arial">Conectividad</text></g><!--link LINK to PA_NET--><g class="link" data-entity-1="ent0039" data-entity-2="ent0038" id="lnk42" data-source-line="89" data-link-type="dependency"><path d="M827.45,586.457 C937.04,604.907 1120.659,635.817 1231.099,654.407" style="stroke:#34495E;stroke-width:1.5;" fill="none" id="LINK-to-PA_NET"/><polygon points="1236.03,655.237,1227.819,649.798,1231.099,654.407,1226.491,657.687,1236.03,655.237" fill="#34495E" style="stroke:#34495E;stroke-width:1.5;stroke-linejoin:miter;stroke-miterlimit:10;"/><text x="950.72" y="596.064" fill="#000" font-size="13" textLength="84.9" font-family="Arial">Conectividad</text></g><!--link USER to CLIENT_NET--><g class="link" data-entity-1="ent0002" data-entity-2="ent0036" id="lnk43" data-source-line="92" data-link-type="dependency"><path d="M76.51,423.197 C125.28,449.927 227.045,505.694 289.515,539.934" style="stroke:#34495E;stroke-width:1.5;" fill="none" id="USER-to-CLIENT_NET"/><polygon points="293.9,542.337,287.93,534.503,289.515,539.934,284.085,541.519,293.9,542.337" fill="#34495E" style="stroke:#34495E;stroke-width:1.5;stroke-linejoin:miter;stroke-miterlimit:10;"/><text x="107.2" y="436.064" fill="#000" font-size="13" textLength="115.515" font-family="Arial">Accede a Internet</text></g><!--link PAGES to TLS--><g class="link" data-entity-1="ent0004" data-entity-2="ent0025" id="lnk44" data-source-line="93" data-link-type="dependency"><path d="M844.86,282.637 C1003.01,314.397 1310.82,389.157 1539.21,524.997 C1657.49,595.347 1763.819,717.023 1808.329,771.583" style="stroke:#34495E;stroke-width:1.5;" fill="none" id="PAGES-to-TLS"/><polygon points="1811.49,775.457,1808.9,765.955,1808.329,771.583,1802.701,771.012,1811.49,775.457" fill="#34495E" style="stroke:#34495E;stroke-width:1.5;stroke-linejoin:miter;stroke-miterlimit:10;"/><text x="1304.21" y="347.064" fill="#000" font-size="13" textLength="41.749" font-family="Arial">HTTPS</text></g><!--link HTTP to TLS--><g class="link" data-entity-1="ent0006" data-entity-2="ent0025" id="lnk45" data-source-line="94" data-link-type="dependency"><path d="M1382.38,290.747 C1459.01,305.367 1595.57,341.727 1678.21,423.997 C1691.62,437.337 1788.166,686.67 1820.446,770.64" style="stroke:#34495E;stroke-width:1.5;" fill="none" id="HTTP-to-TLS"/><polygon points="1822.24,775.307,1822.744,765.471,1820.446,770.64,1815.277,768.342,1822.24,775.307" fill="#34495E" style="stroke:#34495E;stroke-width:1.5;stroke-linejoin:miter;stroke-miterlimit:10;"/><text x="1599.21" y="350.064" fill="#000" font-size="13" textLength="49.029" font-family="Arial">Se cifra</text></g><!--link PORT to DNS--><g class="link" data-entity-1="ent0026" data-entity-2="ent0031" id="lnk47" data-source-line="96" data-link-type="dependency"><path d="M2144.64,857.707 C2120.48,904.777 2063.25,1001.407 1982.75,1042.997 C1600.28,1240.587 1064.325,1101.773 844.725,1030.373" style="stroke:#34495E;stroke-width:1.5;" fill="none" id="PORT-to-DNS"/><polygon points="839.97,1028.827,847.292,1035.414,844.725,1030.373,849.766,1027.806,839.97,1028.827" fill="#34495E" style="stroke:#34495E;stroke-width:1.5;stroke-linejoin:miter;stroke-miterlimit:10;"/><text x="1595.71" y="1129.064" fill="#000" font-size="13" textLength="56.958" font-family="Arial">Consulta</text></g><!--link DNS to GH_NET--><g class="link" data-entity-1="ent0031" data-entity-2="ent0037" id="lnk48" data-source-line="97" data-link-type="dependency"><path d="M762.34,959.107 C790.82,913.117 845.3,831.227 905.22,772.997 C973.21,706.917 1007.52,711.867 1080.22,650.997 C1094.67,638.887 1093.72,630.127 1110.22,620.997 C1148.56,599.777 1190.721,588.565 1230.911,581.735" style="stroke:#34495E;stroke-width:1.5;" fill="none" id="DNS-to-GH_NET"/><polygon points="1235.84,580.897,1226.297,578.461,1230.911,581.735,1227.637,586.348,1235.84,580.897" fill="#34495E" style="stroke:#34495E;stroke-width:1.5;stroke-linejoin:miter;stroke-miterlimit:10;"/><text x="917.22" y="647.064" fill="#000" font-size="13" textLength="151.487" font-family="Arial">Resuelve GitHub Pages</text></g><!--link DNS to PA_NET--><g class="link" data-entity-1="ent0031" data-entity-2="ent0038" id="lnk49" data-source-line="98" data-link-type="dependency"><path d="M815.2,959.067 C886.85,923.177 996.79,862.937 1080.22,793.997 C1095.75,781.157 1093.85,771.757 1110.22,759.997 C1148.02,732.817 1190.587,713.541 1231.037,698.681" style="stroke:#34495E;stroke-width:1.5;" fill="none" id="DNS-to-PA_NET"/><polygon points="1235.73,696.957,1225.903,696.306,1231.037,698.681,1228.661,703.815,1235.73,696.957" fill="#34495E" style="stroke:#34495E;stroke-width:1.5;stroke-linejoin:miter;stroke-miterlimit:10;"/><text x="906.22" y="790.064" fill="#000" font-size="13" textLength="173.577" font-family="Arial">Resuelve PythonAnywhere</text></g><!--link GH_NET to PAGES--><g class="link" data-entity-1="ent0037" data-entity-2="ent0004" id="lnk50" data-source-line="99" data-link-type="dependency"><path d="M1235.77,560.827 C1119.91,545.307 928.08,516.457 905.22,492.997 C847.08,433.337 929.31,371.337 875.22,307.997 C866.89,298.247 860.794,292.929 849.314,287.009" style="stroke:#34495E;stroke-width:1.5;" fill="none" id="GH_NET-to-PAGES"/><polygon points="844.87,284.717,851.036,292.397,849.314,287.009,854.702,285.287,844.87,284.717" fill="#34495E" style="stroke:#34495E;stroke-width:1.5;stroke-linejoin:miter;stroke-miterlimit:10;"/><text x="946.72" y="489.064" fill="#000" font-size="13" textLength="92.733" font-family="Arial">Sirve frontend</text></g><!--link PA_NET to BACKEND--><g class="link" data-entity-1="ent0038" data-entity-2="ent0008" id="lnk51" data-source-line="100" data-link-type="dependency"><path d="M1413.63,653.387 C1452.54,645.127 1498.58,634.097 1539.21,620.997 C1753.37,551.957 1991.986,441.157 2098.306,389.927" style="stroke:#34495E;stroke-width:1.5;" fill="none" id="PA_NET-to-BACKEND"/><polygon points="2102.81,387.757,2092.966,388.06,2098.306,389.927,2096.438,395.267,2102.81,387.757" fill="#34495E" style="stroke:#34495E;stroke-width:1.5;stroke-linejoin:miter;stroke-miterlimit:10;"/><text x="1787.98" y="443.064" fill="#000" font-size="13" textLength="91.552" font-family="Arial">Aloja backend</text></g><!--link IP to TCP--><g class="link" data-entity-1="ent0030" data-entity-2="ent0024" id="lnk53" data-source-line="102" data-link-type="dependency"><path d="M1324.71,961.387 C1324.71,936.947 1324.71,905.937 1324.71,881.527" style="stroke:#34495E;stroke-width:1.5;" fill="none" id="IP-to-TCP"/><polygon points="1324.71,876.527,1320.71,885.527,1324.71,881.527,1328.71,885.527,1324.71,876.527" fill="#34495E" style="stroke:#34495E;stroke-width:1.5;stroke-linejoin:miter;stroke-miterlimit:10;"/><text x="1250.21" y="923.564" fill="#000" font-size="13" textLength="126.991" font-family="Arial">Entrega segmentos</text></g><!--link HTTP to GMN54--><g class="link" data-entity-1="ent0006" data-entity-2="ent0055" id="lnk56" data-source-line="105" data-link-type="association"><path d="M1267,290.587 C1190.77,298.257 1058.53,298.097 992.72,218.497 C942.13,157.317 1021.55,120.637 1115.37,99.157" style="stroke:#34495E;stroke-width:1.5;stroke-dasharray:7,7;" fill="none" id="HTTP-GMN54"/></g><g class="legend" data-source-line="30"><rect x="2300.224" y="1261.587" width="237.466" height="95.484" fill="none" style="stroke:#000;stroke-width:1;" rx="7.5" ry="7.5"/><text x="2310.098" y="1281.582" fill="#000" font-size="14" textLength="94.732" font-weight="700" font-family="Arial">Capa TCP/IP</text><text x="2425.673" y="1281.582" fill="#000" font-size="14" textLength="36.552" font-family="Arial">Color</text><text x="2309.674" y="1297.879" fill="#000" font-size="14" textLength="71.545" font-family="Arial">Aplicacion</text><text x="2421.223" y="1297.879" fill="#000" font-size="14" font-family="Arial"> </text><text x="2430.124" y="1297.879" fill="#000" font-size="14" textLength="68.626" font-family="Arial" filter="url(#bt2vw7nnamdvm0)">Azul claro</text><text x="2503.2" y="1297.879" fill="#000" font-size="14" font-family="Arial"> </text><text x="2309.674" y="1314.176" fill="#000" font-size="14" textLength="76.364" font-family="Arial">Transporte</text><text x="2421.223" y="1314.176" fill="#000" font-size="14" font-family="Arial"> </text><text x="2430.124" y="1314.176" fill="#000" font-size="14" textLength="80.384" font-family="Arial" filter="url(#bt2vw7nnamdvm1)">Verde claro</text><text x="2514.958" y="1314.176" fill="#000" font-size="14" font-family="Arial"> </text><text x="2309.674" y="1330.473" fill="#000" font-size="14" textLength="55.836" font-family="Arial">Internet</text><text x="2421.223" y="1330.473" fill="#000" font-size="14" font-family="Arial"> </text><text x="2430.124" y="1330.473" fill="#000" font-size="14" textLength="73.104" font-family="Arial" filter="url(#bt2vw7nnamdvm2)">Rosa claro</text><text x="2507.677" y="1330.473" fill="#000" font-size="14" font-family="Arial"> </text><text x="2309.674" y="1346.769" fill="#000" font-size="14" textLength="107.099" font-family="Arial">Acceso a la red</text><text x="2421.223" y="1346.769" fill="#000" font-size="14" font-family="Arial"> </text><text x="2430.124" y="1346.769" fill="#000" font-size="14" textLength="93.666" font-family="Arial" filter="url(#bt2vw7nnamdvm3)">Naranja claro</text><text x="2528.24" y="1346.769" fill="#000" font-size="14" font-family="Arial"> </text><line x1="2305.224" y1="1268.587" x2="2532.69" y2="1268.587" style="stroke:#000;stroke-width:1;"/><line x1="2305.224" y1="1284.884" x2="2532.69" y2="1284.884" style="stroke:#000;stroke-width:1;"/><line x1="2305.224" y1="1301.181" x2="2532.69" y2="1301.181" style="stroke:#000;stroke-width:1;"/><line x1="2305.224" y1="1317.478" x2="2532.69" y2="1317.478" style="stroke:#000;stroke-width:1;"/><line x1="2305.224" y1="1333.774" x2="2532.69" y2="1333.774" style="stroke:#000;stroke-width:1;"/><line x1="2305.224" y1="1350.071" x2="2532.69" y2="1350.071" style="stroke:#000;stroke-width:1;"/><line x1="2305.224" y1="1268.587" x2="2305.224" y2="1350.071" style="stroke:#000;stroke-width:1;"/><line x1="2421.223" y1="1268.587" x2="2421.223" y2="1350.071" style="stroke:#000;stroke-width:1;"/><line x1="2532.69" y1="1268.587" x2="2532.69" y2="1350.071" style="stroke:#000;stroke-width:1;"/></g><?plantuml-src hLVTKkCs5BxtKvp9tfPG83jT69ePupZWRjPnRRDxavaTnLOSWIEbiWmBtJvL7w4lrYF9CIOEdKwdNC1OvqVdv_kE3egfai8daTDI096_rKpHJFtr9sUPWDIBZeC8ZY0gYI8h8JS4Wi-1uvHqfK09aAnOAyYPH1ick5FTCxubacnWIRBxGegQvvueXOHtK_FJqQZM91UFZ1Um8cL5EvAShaXTggdWAYGR2gvafEpBK_fDkIKh-8Po1Hd-ehAZjSK8I44JzOG9wW09ByhkDQwKuh69xcmqEd_lxmlJDSlkEQqgE1c-xxk-4ZAdyYqFxPNmkmFuS_L6HOpiW2Tz7bjroQc4arFdZsuHi2DBKlrNxrrNMIdg_7_mmuNwft0-JBo-6-_SFJtz2TqWfWhASmife_VzP_38bknG-1sioNSh17TRiena23lykDHuktWtyNn_EXs3-roNc1QH0YwFjMZScgMIy6eh98RQclaVfk_zyp5yfXZP6tQ1XXUdwiLgwlaZtnjZaohoXf6RPRH2Na5940zvntOwFVD_74E8XUDtVNEiXAs7upHWWu7dHYvCV72ZMU2vNZ0F1z1at5ITP0eBDBYjQYAP602fu3RnOoDxWUCW90-qGF99UAJB1VTAfha32RgFAVg0a_FXgR6-YkTV3ZYuPkgcNaA4OLKBZWJ1Qvz9IPw971PChUlba8bZd1J7nalaNll9leyfLTbwmHE1NMIgpcc5l2vX9P7rcBSndFgfTxDlU9Ec4Ho3_fCi-2-9BWFgwkzzLJSA8FQJTC4dTtWap0TC4QlqKSXxE1kUZ8mnAkxRQWHhF3QMe-7fWaTFQYsuovyUrrHIMo7N--Y74sFTKdAG_3h3ENhGO7BLYxB6X5M3vGN7pxMGx9deYNe1LvH8AXSSnot6y_MIvUElbtM5MCGinZRwsxHNfRaNBx2G5IfYHuTtbT74qtr5FKKrGX_4ymA9GMcsJfwuMjEAMPiqJHnZfA44HqVZ7IhWmfA2P3fmI-r6ehLCrr778x8Ws5lD0OHOJyyq6VNyEvhLYXYvFTDIqsqKyWTcHUP0ItHpqRlWLRsXHgHFJ7os9yPCxbpk3hN2v0fbJMFdyQUzAtKvKUuM4bbYozuB6Wk9Af4Ko6y2R8DCw2jXvL0ffbifyZgZe7IfzQZhKJgDtJ29vd7g8wNjD6eetUsK5o5P1QVVzCn3Y21gI4wmTwkolhDqHvsUsGnfuh6LHCRhDXZYMELPZvLHJIN2OJGwqrTjQhuRiHKjQaaidJ5EYmYypIOwqucsazKMN1yQ7A2whPN2YNOm_I1C_JZqKqpU3jL-yW7cFj5xXew6R7Jk0fw0cWRRJnDSqCj_4YPlpYYaLKxuSu5KaYV3hM4hQTWwpCJ6CZRibId6IokyN4dzN9Zn-SE2TySYndQ0_F7yDWt2Qrizz6iA54G69LLDomSAkTWmpaHbL09RtyQi1JGk8B_L5Dbzi9gkv_d975oOuJpt9mDeNfj-KR-meod3MOg3IrIm4G-ir0EzUH1CnDuiyCFqApR76DjLOH1mX1EMLDQPGbZOuzS5CDRND__Iya2j8hUrxOJiyv8WbLQiqWlg4pvv-eLTS5B2XkRDepSBme-snY_Xcq9gWQQsCJ8AvaIBRAXsekXjze7b97-jOYFQLy4Mj9EnSvsz1Vb6sjN1iIFnXJ66YauxqUnXWf3IR7Ls1D8iku3RYZY6IcQ0XSbkzfL8jnsIsXnQD7KxqggrURHghyllD7wwKpnX4lLshxFJk7WzRTrIu2gpj0-dimDj2_4N-ZeDhcrclgOHJbeSCNgJH-WxPfDS2gN41iJgvMsVwa47MybunhQalB3labrt01toThFHrUZIKJyqUkE0var9ZdVJpyPX_i-nZufP4YZVAugMscTzgBSpi-p-3G00?></g></svg>