<?xml version="1.0" standalone="no"?>
<!DOCTYPE svg PUBLIC "-//W3C//DTD SVG 20010904//EN"
 "http://www.w3.org/TR/2001/REC-SVG-20010904/DTD/svg10.dtd">
<svg version="1.0" xmlns="http://www.w3.org/2000/svg"
 width="435.000000pt" height="437.000000pt" viewBox="0 0 435.000000 437.000000"
 preserveAspectRatio="xMidYMid meet">

<g transform="translate(0.000000,437.000000) scale(0.100000,-0.100000)"
fill="#000000" stroke="none">
<path d="M2034 3781 c4 -5 -11 -7 -34 -4 -23 3 -40 2 -40 -4 0 -6 -12 -8 -26
-5 -18 3 -25 1 -20 -6 4 -7 -1 -9 -14 -7 -28 5 -52 -4 -43 -18 4 -7 0 -8 -11
-4 -17 7 -85 -18 -97 -36 -3 -5 -9 -8 -13 -8 -22 3 -28 -2 -11 -9 17 -7 15 -9
-12 -9 -35 -1 -67 -26 -59 -47 5 -13 0 -15 -45 -19 -19 -1 -63 -35 -90 -68
-19 -25 -19 -25 1 -20 12 3 22 -1 26 -11 7 -19 24 -21 24 -3 0 8 9 22 20 32
11 10 17 22 14 26 -3 5 2 6 10 3 9 -3 16 -2 16 4 0 5 14 12 30 14 19 3 30 0
30 -7 0 -13 43 -35 68 -35 9 1 28 7 41 14 l24 13 -27 7 c-15 4 -24 11 -21 16
4 6 11 8 16 4 6 -3 13 3 16 15 7 27 60 31 57 4 -1 -7 1 -11 5 -10 86 44 169
59 197 36 9 -7 18 -9 22 -3 11 15 63 12 58 -3 -4 -10 2 -12 22 -8 l27 5 -28
-11 c-22 -9 -25 -14 -17 -25 10 -11 16 -11 36 2 13 9 21 20 18 25 -3 5 3 6 12
2 10 -3 15 -2 12 3 -7 10 17 14 104 16 32 1 52 6 45 10 -21 14 8 9 44 -7 47
-20 70 -40 73 -62 2 -13 10 -17 27 -15 17 2 20 0 11 -6 -10 -7 -6 -11 15 -15
15 -3 36 -9 46 -12 13 -6 16 -3 11 9 -3 9 -1 16 5 16 6 0 11 -4 11 -10 0 -5 9
-10 21 -10 13 0 18 -4 13 -12 -5 -7 0 -9 14 -6 24 7 36 -15 24 -40 -6 -12 -1
-30 15 -57 20 -33 22 -35 17 -12 -3 15 -2 27 3 27 5 0 10 -6 11 -12 9 -83 16
-107 31 -105 9 1 17 7 18 12 0 6 -4 9 -10 7 -6 -2 -5 4 3 12 10 13 10 16 -2
16 -7 0 -14 9 -15 20 -2 18 8 25 22 18 8 -5 33 37 28 46 -4 5 -1 6 5 3 5 -4 8
-17 6 -30 -4 -21 -4 -21 6 2 8 19 7 28 -7 45 -68 83 -106 108 -98 67 4 -23
-21 -36 -29 -15 -3 9 1 22 9 31 19 18 15 25 -47 73 -48 39 -101 54 -96 28 2
-8 -8 -13 -24 -13 -14 1 -24 -3 -22 -7 10 -16 -18 -7 -38 12 -12 11 -28 20
-36 20 -12 0 -12 3 -2 15 7 8 24 15 37 15 43 0 19 24 -48 47 -66 24 -167 26
-162 4 2 -6 -4 -8 -13 -4 -9 3 -14 13 -11 24 5 18 -3 19 -105 19 -62 0 -107
-4 -104 -9z m59 -8 c-7 -2 -21 -2 -30 0 -10 3 -4 5 12 5 17 0 24 -2 18 -5z
m95 0 c-16 -2 -40 -2 -55 0 -16 2 -3 4 27 4 30 0 43 -2 28 -4z m-191 -9 c-3
-3 -12 -4 -19 -1 -8 3 -5 6 6 6 11 1 17 -2 13 -5z m-167 -44 c0 -5 -10 -10
-22 -9 -22 0 -22 1 -3 9 11 5 21 9 23 9 1 1 2 -3 2 -9z m-5 -29 c3 -5 1 -12
-5 -16 -5 -3 -10 1 -10 9 0 18 6 21 15 7z m102 3 c-3 -3 -12 -4 -19 -1 -8 3
-5 6 6 6 11 1 17 -2 13 -5z m460 0 c-3 -3 -12 -4 -19 -1 -8 3 -5 6 6 6 11 1
17 -2 13 -5z m-617 -24 c0 -19 -33 -40 -61 -40 -22 0 -6 21 20 26 20 4 28 11
24 20 -3 8 0 14 6 14 6 0 11 -9 11 -20z m313 10 c7 0 4 -5 -5 -11 -10 -5 -35
-6 -60 -2 l-43 7 35 7 c19 3 41 5 48 3 8 -2 19 -4 25 -4z m214 4 c-3 -3 -12
-4 -19 -1 -8 3 -5 6 6 6 11 1 17 -2 13 -5z m-117 -78 c0 -3 -4 -8 -10 -11 -5
-3 -10 -1 -10 4 0 6 5 11 10 11 6 0 10 -2 10 -4z m524 -25 c3 -4 -3 -16 -13
-25 -12 -11 -21 -13 -25 -7 -4 5 -2 12 4 16 6 4 8 11 5 16 -4 5 1 9 9 9 8 0
17 -4 20 -9z m-969 -11 c-3 -5 -12 -10 -18 -10 -7 0 -6 4 3 10 19 12 23 12 15
0z m1002 -75 c0 -8 -4 -12 -9 -9 -5 3 -6 10 -3 15 9 13 12 11 12 -6z m-22 -14
c3 -5 2 -12 -3 -15 -5 -3 -9 1 -9 9 0 17 3 19 12 6z m46 -54 c-10 -9 -11 -8
-5 6 3 10 9 15 12 12 3 -3 0 -11 -7 -18z"/>
<path d="M2520 3700 c0 -5 5 -10 11 -10 5 0 7 5 4 10 -3 6 -8 10 -11 10 -2 0
-4 -4 -4 -10z"/>
<path d="M1935 3574 c-16 -8 -41 -26 -55 -39 -31 -30 -90 -55 -130 -55 -21 0
-30 -5 -30 -16 0 -9 -9 -29 -21 -45 -17 -24 -27 -29 -63 -29 -27 0 -48 6 -56
15 -16 19 -34 19 -50 -1 -11 -12 -10 -18 4 -32 13 -14 20 -14 36 -4 19 11 92
17 101 8 3 -3 3 -22 1 -43 -3 -26 -12 -44 -28 -56 -25 -18 -26 -18 -59 7 -18
14 -40 26 -49 26 -8 0 -18 5 -21 10 -10 16 -42 12 -49 -6 -7 -18 10 -44 27
-44 6 0 19 7 29 16 17 16 20 15 58 -10 43 -28 47 -35 28 -54 -19 -19 -164 -16
-172 3 -7 19 -40 20 -55 1 -26 -31 19 -68 49 -41 12 10 38 15 88 15 40 0 72
-2 72 -5 0 -25 -27 -54 -54 -58 l-31 -4 33 -1 c21 -1 32 -7 32 -17 0 -20 -62
-104 -77 -104 -6 -1 -33 17 -58 39 -28 25 -56 40 -72 40 -15 0 -35 8 -45 17
-17 16 -20 16 -35 0 -16 -16 -16 -18 -1 -34 14 -14 22 -15 43 -5 41 19 59 14
95 -23 19 -19 39 -35 44 -35 25 -1 37 -17 30 -43 -5 -24 -11 -27 -48 -27 -23
0 -47 5 -53 11 -16 16 -43 3 -43 -21 0 -15 7 -20 24 -20 14 0 28 5 31 10 3 6
22 10 41 10 31 0 37 -4 50 -36 16 -38 12 -64 -17 -105 -11 -16 -15 -30 -9 -39
5 -8 7 -24 4 -35 -3 -11 2 -39 10 -62 11 -31 12 -43 3 -47 -8 -3 -8 -5 2 -5 7
-1 26 -12 43 -26 16 -14 35 -25 42 -25 9 0 14 -17 14 -55 1 -81 40 -147 105
-180 28 -14 63 -25 78 -25 21 0 34 -10 56 -42 56 -83 152 -110 240 -67 79 38
83 49 83 238 l0 167 -33 -4 c-42 -5 -83 27 -96 73 -20 75 31 152 95 142 l31
-5 7 106 c3 58 8 107 10 109 2 2 20 -4 40 -14 34 -16 40 -16 64 -2 38 21 51
78 29 124 -19 40 -54 53 -97 35 -16 -6 -34 -9 -39 -5 -7 4 -11 71 -11 189 l0
182 -27 26 c-16 14 -38 31 -50 37 -31 16 -103 14 -138 -5z m15 -44 c0 -5 -6
-10 -14 -10 -8 0 -24 -12 -35 -27 -12 -14 -23 -24 -26 -21 -6 6 54 68 66 68 5
0 9 -4 9 -10z m82 -22 c-8 -8 -12 -47 -13 -107 0 -75 -3 -90 -10 -71 -13 31
-8 192 6 202 16 11 31 -10 17 -24z m68 -15 c0 -5 -5 -15 -11 -23 -9 -12 -10
-12 -5 4 5 14 2 17 -9 12 -9 -3 -13 -2 -10 4 7 12 35 14 35 3z m-147 -90 c-7
-78 -13 -95 -13 -36 0 22 -3 55 -6 72 -5 24 -3 31 9 31 14 0 15 -10 10 -67z
m-123 2 c0 -8 -7 -15 -16 -15 -14 0 -14 3 -4 15 7 8 14 15 16 15 2 0 4 -7 4
-15z m-252 -12 c5 -17 -26 -29 -40 -15 -6 6 -7 15 -3 22 9 14 37 9 43 -7z
m270 -63 c-2 -7 -10 1 -17 16 -12 27 -11 28 4 12 10 -9 16 -21 13 -28z m261
-34 c-3 -3 -11 5 -18 17 -13 21 -12 21 5 5 10 -10 16 -20 13 -22z m-599 10 c0
-21 -21 -31 -30 -15 -5 7 -6 17 -4 21 9 14 34 9 34 -6z m238 2 c-3 -7 -11 -13
-18 -13 -7 0 -15 6 -17 13 -3 7 4 12 17 12 13 0 20 -5 18 -12z m226 -30 c8 -5
7 -11 -1 -19 -17 -17 -33 -1 -33 34 1 29 2 30 12 12 6 -11 16 -23 22 -27z
m-154 8 c0 -19 -27 -28 -33 -11 -7 15 1 25 20 25 7 0 13 -6 13 -14z m200 -51
c0 -14 -4 -25 -10 -25 -11 0 -14 33 -3 43 11 11 13 8 13 -18z m-164 -52 c35
-38 64 -72 64 -77 0 -6 -30 23 -66 63 -47 50 -70 69 -77 62 -16 -16 -27 -13
-21 4 11 28 37 15 100 -52z m83 15 c2 -14 -24 3 -44 30 l-20 27 32 -25 c18
-14 32 -28 32 -32z m121 42 c0 -5 -2 -10 -4 -10 -3 0 -8 5 -11 10 -3 6 -1 10
4 10 6 0 11 -4 11 -10z m-630 -30 c0 -13 -7 -20 -20 -20 -13 0 -20 7 -20 20 0
13 7 20 20 20 13 0 20 -7 20 -20z m250 -25 c21 -25 3 -29 -26 -6 -24 19 -25
21 -7 21 11 0 26 -7 33 -15z m145 -35 c27 -27 47 -50 44 -50 -3 0 -27 23 -54
50 -27 28 -47 50 -44 50 3 0 27 -22 54 -50z m-20 -37 c40 -46 51 -61 26 -38
-42 39 -107 115 -99 115 3 0 35 -35 73 -77z m106 50 c13 -16 12 -17 -3 -4 -17
13 -22 21 -14 21 2 0 10 -8 17 -17z m-221 -34 c0 -5 -4 -9 -10 -9 -5 0 -10 7
-10 16 0 8 5 12 10 9 6 -3 10 -10 10 -16z m-60 -5 c0 -9 -5 -14 -12 -12 -18 6
-21 28 -4 28 9 0 16 -7 16 -16z m426 -30 c-6 -17 -8 -17 -24 0 -15 15 -15 18
-2 26 19 12 35 -3 26 -26z m-736 -3 c0 -14 -18 -23 -30 -16 -6 4 -8 11 -5 16
8 12 35 12 35 0z m490 -58 l65 -68 -70 65 c-38 36 -71 66 -74 68 -2 1 0 2 5 2
5 0 39 -30 74 -67z m128 17 c22 -7 23 -8 6 -9 -11 -1 -29 6 -40 15 -10 8 -13
12 -6 9 8 -4 26 -11 40 -15z m82 -29 c0 -25 -5 -41 -14 -44 -12 -5 -15 3 -13
38 3 57 27 62 27 6z m-303 13 c-3 -3 -12 -4 -19 -1 -8 3 -5 6 6 6 11 1 17 -2
13 -5z m-42 -33 c7 -12 -12 -24 -25 -16 -11 7 -4 25 10 25 5 0 11 -4 15 -9z
m380 0 c3 -5 1 -12 -5 -16 -5 -3 -10 1 -10 9 0 18 6 21 15 7z m56 -14 c-1 -12
-15 -9 -19 4 -3 6 1 10 8 8 6 -3 11 -8 11 -12z m-370 -12 c-1 -15 -24 -12 -29
3 -3 9 2 13 12 10 10 -1 17 -7 17 -13z m85 -17 l29 -33 -32 29 c-31 28 -38 36
-30 36 2 0 16 -15 33 -32z m90 -9 c10 -17 -13 -36 -27 -22 -12 12 -4 33 11 33
5 0 12 -5 16 -11z m-525 -14 c-1 -15 -24 -12 -29 3 -3 9 2 13 12 10 10 -1 17
-7 17 -13z m729 1 c0 -8 -5 -18 -10 -21 -13 -8 -42 14 -34 26 9 15 44 10 44
-5z m-450 -11 c-7 -8 -18 -15 -25 -15 -7 0 -18 7 -25 15 -11 13 -7 15 25 15
32 0 36 -2 25 -15z m150 -16 c0 -12 -27 -11 -35 1 -11 17 5 32 21 19 8 -6 14
-15 14 -20z m203 24 c-7 -2 -19 -2 -25 0 -7 3 -2 5 12 5 14 0 19 -2 13 -5z
m-145 -36 l22 -23 -58 -54 -57 -55 53 55 c40 43 49 59 40 68 -9 9 -15 9 -27
-1 -14 -10 -14 -10 -4 4 7 9 10 19 6 22 -3 4 -4 7 -1 7 2 0 14 -10 26 -23z
m-8 -117 c-69 -65 -128 -119 -132 -120 -4 0 49 54 118 120 68 66 128 120 132
120 4 0 -49 -54 -118 -120z m250 74 c0 -8 -7 -14 -15 -14 -15 0 -21 21 -9 33
10 9 24 -2 24 -19z m-530 -2 c0 -11 -10 -27 -22 -38 l-21 -19 18 28 c10 15 14
31 10 35 -4 4 -10 1 -12 -6 -3 -6 -9 -10 -14 -6 -14 8 0 24 22 24 12 0 19 -7
19 -18z m170 3 c0 -8 -9 -15 -20 -15 -11 0 -20 7 -20 15 0 8 9 15 20 15 11 0
20 -7 20 -15z m270 12 c0 -2 -12 -14 -27 -28 l-28 -24 24 28 c23 25 31 32 31
24z m-275 -87 c-28 -28 -58 -50 -70 -50 -16 0 -13 4 11 16 17 8 46 31 65 50
18 19 35 34 38 34 3 0 -17 -22 -44 -50z m215 36 c0 -2 -30 -29 -67 -61 l-68
-57 65 61 c64 60 70 65 70 57z m-300 -14 c0 -14 -11 -21 -26 -15 -8 3 -11 9
-8 14 7 11 34 12 34 1z m343 -37 c-3 -9 -8 -14 -10 -11 -3 3 -2 9 2 15 9 16
15 13 8 -4z m-413 -50 c-13 -14 -27 -25 -32 -25 -9 0 42 49 51 50 3 0 -6 -11
-19 -25z m148 5 c-7 -10 -14 -17 -17 -15 -4 4 18 35 25 35 2 0 -1 -9 -8 -20z
m177 -20 c3 -6 -1 -13 -10 -16 -19 -8 -30 0 -20 15 8 14 22 14 30 1z m-95 -3
c0 -2 -12 -14 -27 -28 l-28 -24 24 28 c23 25 31 32 31 24z m-142 -26 c3 -10 0
-12 -12 -8 -10 4 -15 3 -11 -3 3 -6 -1 -10 -9 -10 -16 0 -22 21 -9 34 11 10
36 3 41 -13z m-88 -11 c0 -5 -4 -10 -10 -10 -5 0 -10 5 -10 10 0 6 5 10 10 10
6 0 10 -4 10 -10z m245 -38 c0 -18 -20 -15 -23 4 -3 10 1 15 10 12 7 -3 13
-10 13 -16z m-100 -12 c10 -16 -16 -43 -28 -31 -11 11 -2 41 12 41 5 0 13 -5
16 -10z m151 -47 c-10 -26 -29 1 -21 28 7 20 8 21 17 5 5 -9 7 -24 4 -33z
m139 17 c10 -11 16 -20 13 -20 -3 0 -13 9 -23 20 -10 11 -16 20 -13 20 3 0 13
-9 23 -20z m66 -47 c13 -16 12 -17 -3 -4 -10 7 -18 15 -18 17 0 8 8 3 21 -13z
m-311 -33 c0 -13 -7 -20 -18 -20 -30 0 -34 13 -10 27 30 16 28 16 28 -7z m180
-34 c0 -25 -13 -24 -35 2 -13 15 -21 30 -19 34 7 11 54 -22 54 -36z m76 13 c3
-6 1 -16 -4 -21 -13 -13 -45 8 -36 23 7 12 31 11 40 -2z m-126 -44 l35 -40
-37 34 c-21 19 -38 39 -38 45 0 5 1 7 3 5 1 -2 18 -22 37 -44z m-66 -14 l21
-23 -36 23 c-29 19 -34 27 -26 38 10 11 12 11 15 0 3 -8 14 -25 26 -38z m-97
14 c2 -1 -8 -8 -22 -15 -27 -15 -54 -2 -41 19 6 9 51 6 63 -4z m248 -36 c11
-16 1 -19 -13 -3 -7 8 -8 14 -3 14 5 0 13 -5 16 -11z m-48 -101 c-2 -18 -4 -4
-4 32 0 36 2 50 4 33 2 -18 2 -48 0 -65z m-162 62 c0 -9 -11 -16 -27 -18 -16
-2 -28 1 -28 6 0 6 9 8 20 5 25 -7 27 14 3 21 -11 3 -7 4 7 3 15 -1 25 -8 25
-17z m282 -32 c-3 -7 -5 -2 -5 12 0 14 2 19 5 13 2 -7 2 -19 0 -25z m9 -29
c10 -17 -13 -36 -27 -22 -12 12 -4 33 11 33 5 0 12 -5 16 -11z m-180 -67 c-10
-10 -29 15 -21 28 6 9 10 8 17 -4 6 -10 7 -20 4 -24z m54 -2 c0 -21 -15 -27
-25 -10 -7 12 2 30 16 30 5 0 9 -9 9 -20z m64 -11 c-8 -14 -34 -11 -34 4 0 8
3 17 7 20 9 9 34 -13 27 -24z"/>
<path d="M2248 3564 c-28 -15 -48 -42 -48 -66 0 -7 9 2 20 20 11 17 21 32 22
32 2 0 21 7 43 15 32 11 35 14 15 14 -14 0 -37 -6 -52 -15z"/>
<path d="M2371 3497 c-2 -50 34 -89 54 -57 3 5 0 7 -8 4 -18 -7 -34 14 -40 51
l-4 30 -2 -28z"/>
<path d="M2449 3502 c6 -11 6 -24 0 -35 -7 -11 -6 -17 1 -17 5 0 10 -6 10 -14
0 -8 5 -18 11 -21 7 -5 8 5 4 29 l-7 36 43 1 c34 2 37 3 14 6 -16 3 -38 11
-49 19 -28 19 -39 18 -27 -4z"/>
<path d="M1630 3495 c-16 -19 -3 -55 19 -55 10 0 24 7 31 15 10 13 10 19 -5
35 -22 24 -29 25 -45 5z m40 -20 c0 -19 -13 -25 -30 -15 -11 7 -11 11 -1 24
15 17 31 13 31 -9z"/>
<path d="M2265 3499 c-4 -6 -5 -12 -2 -15 2 -3 7 2 10 11 7 17 1 20 -8 4z"/>
<path d="M1508 3483 c7 -3 16 -2 19 1 4 3 -2 6 -13 5 -11 0 -14 -3 -6 -6z"/>
<path d="M2567 3469 c7 -7 15 -10 18 -7 3 3 -2 9 -12 12 -14 6 -15 5 -6 -5z"/>
<path d="M1465 3450 c-4 -6 -10 -8 -14 -6 -9 6 -40 -33 -64 -80 -12 -23 -13
-34 -4 -43 8 -8 8 -11 -1 -11 -7 0 -12 -4 -12 -10 0 -25 23 -6 40 34 10 24 27
47 38 50 14 5 21 18 24 41 4 37 3 41 -7 25z"/>
<path d="M2540 3445 c-6 -8 -10 -21 -8 -31 2 -11 7 -6 15 15 13 34 11 38 -7
16z"/>
<path d="M2277 3439 c7 -7 15 -10 18 -7 3 3 -2 9 -12 12 -14 6 -15 5 -6 -5z"/>
<path d="M2192 3400 c0 -19 2 -27 5 -17 2 9 2 25 0 35 -3 9 -5 1 -5 -18z"/>
<path d="M2639 3397 c25 -40 17 -55 -31 -53 -20 0 -34 -2 -31 -6 2 -5 22 -8
44 -8 26 0 39 -4 39 -13 0 -8 9 -22 19 -31 19 -17 19 -16 3 31 -29 92 -34 102
-49 107 -11 5 -10 -2 6 -27z"/>
<path d="M2856 3417 c3 -10 9 -15 12 -12 3 3 0 11 -7 18 -10 9 -11 8 -5 -6z"/>
<path d="M2315 3385 l-30 -14 33 -1 c22 0 32 5 32 15 0 8 -1 15 -2 14 -2 0
-16 -7 -33 -14z"/>
<path d="M2865 3360 c-10 -11 -22 -17 -28 -13 -6 4 -8 -2 -5 -15 4 -15 2 -19
-8 -15 -8 3 -18 -5 -24 -21 -11 -30 -5 -52 16 -60 10 -4 13 -2 7 6 -12 21 -10
48 4 48 8 0 11 -5 7 -12 -5 -10 -4 -10 6 -1 10 9 17 10 27 1 11 -8 12 -7 7 6
-5 14 -2 16 19 12 14 -2 28 -2 31 1 5 5 -30 83 -38 83 -1 0 -11 -9 -21 -20z"/>
<path d="M2382 3358 c-14 -14 -16 -44 -4 -52 5 -3 8 5 8 16 -1 14 9 27 24 35
22 11 23 13 5 13 -12 0 -26 -5 -33 -12z"/>
<path d="M2500 3333 c0 -4 12 -20 27 -35 19 -20 37 -28 60 -28 18 0 33 4 33
10 0 5 -12 7 -28 4 -28 -6 -72 21 -72 45 0 6 -4 11 -10 11 -5 0 -10 -3 -10 -7z"/>
<path d="M2200 3320 c0 -5 7 -7 15 -4 8 4 15 8 15 10 0 2 -7 4 -15 4 -8 0 -15
-4 -15 -10z"/>
<path d="M2252 3324 c19 -6 33 -38 23 -54 -3 -5 -22 -10 -41 -10 -32 0 -34 -2
-33 -32 1 -24 3 -27 6 -11 5 27 48 41 74 25 24 -15 46 -6 53 21 8 30 7 42 -1
33 -8 -7 -9 -11 -12 -37 -3 -24 -26 0 -31 32 -4 28 -10 34 -30 36 -14 1 -17
-1 -8 -3z"/>
<path d="M2840 3231 c0 -25 6 -27 13 -6 4 8 2 17 -3 20 -6 4 -10 -3 -10 -14z"/>
<path d="M2502 3218 c-15 -15 -16 -35 -2 -43 6 -3 7 1 4 10 -4 8 -1 22 6 30
15 18 9 20 -8 3z"/>
<path d="M2912 3210 c-7 -12 -8 -20 -2 -20 5 0 10 5 10 11 0 5 4 8 8 5 4 -2 6
-23 4 -46 -3 -26 -7 -37 -12 -30 -5 7 -19 11 -34 8 -14 -3 -26 -1 -26 3 0 5 4
9 9 9 5 0 7 9 4 20 -9 32 -23 23 -23 -15 0 -19 4 -35 8 -35 5 0 19 -19 32 -42
15 -28 18 -39 8 -30 -14 12 -15 9 -1 -30 9 -26 14 -74 12 -127 -2 -89 12 -221
27 -256 17 -39 32 -25 48 43 8 37 11 68 6 70 -4 2 -6 14 -4 28 2 13 0 24 -6
24 -6 0 -9 -4 -5 -9 3 -5 1 -12 -5 -16 -5 -3 -10 -1 -10 4 0 6 -5 11 -11 11
-8 0 -9 -13 -5 -39 3 -23 2 -42 -4 -46 -6 -4 -10 10 -10 34 0 21 -3 47 -7 57
-4 11 -3 15 4 11 6 -4 13 2 16 13 3 13 0 20 -9 20 -10 0 -14 14 -14 50 0 30 4
50 11 50 8 0 8 5 -1 15 -7 8 -10 21 -7 29 3 7 0 19 -6 26 -9 10 -9 11 2 5 11
-6 13 -4 7 11 -4 10 -9 24 -10 29 -1 6 -6 16 -10 24 -6 9 -5 12 1 8 5 -3 21 0
36 8 20 10 27 11 27 2 0 -7 4 -6 10 3 5 8 8 22 6 30 -2 8 -7 27 -10 42 -4 16
-10 27 -15 25 -5 -1 -16 6 -23 16 -12 16 -14 16 -26 -3z"/>
<path d="M2612 3200 c0 -14 2 -19 5 -12 2 6 2 18 0 25 -3 6 -5 1 -5 -13z"/>
<path d="M2438 3157 c21 -22 19 -40 -5 -44 -6 -1 -17 4 -23 12 -14 17 -30 20
-30 5 0 -5 7 -10 15 -10 8 0 24 -18 35 -40 24 -48 32 -51 24 -10 -4 17 -1 36
5 44 12 14 5 46 -11 46 -5 0 -6 5 -3 10 3 6 -2 10 -11 10 -15 0 -15 -3 4 -23z"/>
<path d="M1473 3139 c9 -6 15 -14 12 -20 -10 -15 -33 -10 -38 9 -4 13 -5 11
-6 -5 -1 -18 4 -23 23 -23 14 0 27 4 30 9 10 15 -5 41 -23 41 -14 -1 -14 -2 2
-11z"/>
<path d="M2371 3094 c0 -11 3 -14 6 -6 3 7 2 16 -1 19 -3 4 -6 -2 -5 -13z"/>
<path d="M2512 3079 c6 -16 12 -28 15 -26 7 7 -8 57 -18 57 -4 0 -3 -14 3 -31z"/>
<path d="M2770 3086 c0 -8 9 -20 21 -26 19 -11 20 -10 10 9 -15 27 -31 36 -31
17z"/>
<path d="M2550 3040 c-9 -6 -10 -10 -3 -10 6 0 15 5 18 10 8 12 4 12 -15 0z"/>
<path d="M2680 3029 c7 -11 14 -19 16 -16 7 7 -7 37 -17 37 -6 0 -5 -9 1 -21z"/>
<path d="M2742 3031 c2 -7 7 -12 11 -12 12 1 9 15 -3 20 -7 2 -11 -2 -8 -8z"/>
<path d="M2996 3014 c-3 -9 -11 -12 -18 -8 -7 4 -5 -2 5 -13 12 -14 14 -22 7
-25 -7 -2 -14 -26 -17 -53 -5 -47 -4 -49 10 -30 16 20 16 20 11 -1 -3 -12 -1
-25 5 -28 8 -5 11 21 11 83 0 91 -3 105 -14 75z m1 -76 c-3 -8 -6 -5 -6 6 -1
11 2 17 5 13 3 -3 4 -12 1 -19z"/>
<path d="M2615 2980 c12 -40 24 -70 28 -70 10 0 -8 71 -20 82 -14 11 -15 10
-8 -12z"/>
<path d="M2418 2978 c6 -6 20 -13 29 -14 16 -2 16 -1 -1 12 -24 17 -45 19 -28
2z"/>
<path d="M2321 2974 c-1 -5 -13 -15 -28 -21 -28 -12 -28 -12 -2 -7 20 4 26 1
26 -13 0 -24 -15 -43 -31 -37 -15 6 -9 -64 6 -83 17 -22 47 -16 41 7 -3 13 0
20 8 20 10 0 15 17 17 60 2 47 0 60 -12 60 -8 0 -17 6 -19 13 -3 6 -6 7 -6 1z
m13 -90 c3 -8 2 -12 -4 -9 -6 3 -10 10 -10 16 0 14 7 11 14 -7z"/>
<path d="M2560 2963 c0 -13 27 -49 33 -43 3 3 -3 16 -14 29 -10 13 -19 19 -19
14z"/>
<path d="M2730 2944 c0 -22 2 -24 15 -14 8 7 22 9 32 6 15 -6 15 -5 -2 14 -25
28 -45 25 -45 -6z"/>
<path d="M2193 2935 c0 -8 4 -12 9 -9 4 3 8 9 8 15 0 5 -4 9 -8 9 -5 0 -9 -7
-9 -15z"/>
<path d="M2681 2934 c0 -11 3 -14 6 -6 3 7 2 16 -1 19 -3 4 -6 -2 -5 -13z"/>
<path d="M2470 2916 c0 -2 8 -10 18 -17 15 -13 16 -12 3 4 -13 16 -21 21 -21
13z"/>
<path d="M2805 2910 c3 -5 8 -10 11 -10 2 0 4 5 4 10 0 6 -5 10 -11 10 -5 0
-7 -4 -4 -10z"/>
<path d="M2576 2878 c3 -13 12 -36 19 -53 12 -27 13 -28 14 -7 1 23 -24 82
-35 82 -3 0 -2 -10 2 -22z"/>
<path d="M2824 2853 c-4 -15 -2 -34 6 -46 6 -11 16 -41 20 -66 l8 -46 1 38 c0
21 -6 51 -14 67 -9 18 -13 40 -9 55 3 14 4 25 0 25 -3 0 -9 -12 -12 -27z"/>
<path d="M1197 2853 c-14 -13 -7 -42 12 -52 14 -8 22 -7 31 4 21 25 66 18 104
-16 22 -19 49 -32 73 -34 l38 -5 -42 11 c-24 6 -51 21 -62 35 -12 15 -34 27
-55 31 -20 3 -41 12 -47 19 -12 15 -41 19 -52 7z m40 -18 c7 -20 -2 -29 -21
-22 -9 4 -13 13 -10 22 8 19 23 19 31 0z"/>
<path d="M2225 2850 c3 -5 8 -10 11 -10 2 0 4 5 4 10 0 6 -5 10 -11 10 -5 0
-7 -4 -4 -10z"/>
<path d="M2400 2851 c0 -5 9 -7 20 -4 12 3 20 0 20 -6 0 -7 5 -9 10 -6 20 12
9 25 -20 25 -16 0 -30 -4 -30 -9z"/>
<path d="M2515 2820 c3 -25 13 -52 22 -60 14 -14 14 -13 4 7 -6 12 -11 32 -11
45 0 13 -5 30 -11 38 -8 11 -9 3 -4 -30z"/>
<path d="M1445 2840 c-3 -5 -1 -10 4 -10 6 0 11 5 11 10 0 6 -2 10 -4 10 -3 0
-8 -4 -11 -10z"/>
<path d="M2453 2829 c-6 -6 -9 -18 -6 -26 4 -9 -2 -16 -16 -20 -11 -3 -21 -10
-21 -15 0 -5 4 -7 9 -4 4 3 6 -5 4 -17 -5 -30 29 -72 51 -64 11 4 14 12 10 19
-4 7 1 5 12 -4 16 -14 23 -15 32 -6 9 9 5 14 -21 23 -32 10 -32 11 -29 68 3
56 -3 68 -25 46z"/>
<path d="M2187 2764 c-4 -25 -2 -27 23 -16 14 6 14 9 -1 24 -16 15 -17 14 -22
-8z"/>
<path d="M2767 2765 c19 -8 33 -22 36 -37 4 -21 4 -21 6 4 1 29 -22 48 -56 48
-11 -1 -6 -6 14 -15z"/>
<path d="M2119 2750 c13 -11 28 -20 35 -20 6 1 0 10 -13 20 -13 11 -28 20 -35
20 -6 -1 0 -10 13 -20z"/>
<path d="M2270 2766 c0 -3 9 -10 20 -16 11 -6 20 -8 20 -6 0 3 -9 10 -20 16
-11 6 -20 8 -20 6z"/>
<path d="M2326 2752 c-3 -5 1 -9 9 -9 8 0 12 4 9 9 -3 4 -7 8 -9 8 -2 0 -6 -4
-9 -8z"/>
<path d="M2605 2720 c-19 -8 -19 -9 2 -9 12 -1 25 4 28 9 7 12 -2 12 -30 0z"/>
<path d="M2690 2710 c-14 -11 -20 -20 -13 -20 11 0 43 26 43 36 0 7 -4 5 -30
-16z"/>
<path d="M1294 2695 c-7 -17 3 -35 18 -35 7 0 7 4 -1 13 -12 15 -5 27 17 27 9
0 13 -7 9 -19 -4 -18 -2 -18 21 -8 20 9 22 13 9 15 -9 2 -17 8 -17 13 0 15
-50 10 -56 -6z"/>
<path d="M2184 2702 c4 -7 1 -12 -8 -12 -10 0 -13 -6 -10 -15 4 -8 11 -15 17
-15 6 0 7 3 4 7 -4 3 -2 12 4 19 7 8 6 14 -2 20 -8 4 -9 3 -5 -4z"/>
<path d="M2205 2680 c-3 -5 1 -10 9 -10 9 0 16 5 16 10 0 6 -4 10 -9 10 -6 0
-13 -4 -16 -10z"/>
<path d="M2237 2668 c-6 -9 -17 -13 -25 -10 -11 4 -13 1 -7 -7 4 -8 2 -17 -6
-22 -11 -7 -11 -9 2 -9 9 0 19 7 22 14 7 19 67 51 67 36 0 -7 6 -8 18 -1 12 6
23 7 30 1 9 -7 9 -7 1 3 -15 18 -90 15 -102 -5z"/>
<path d="M2580 2628 c-30 -28 -41 -42 -23 -30 17 12 35 22 40 23 11 0 57 59
46 59 -4 0 -33 -23 -63 -52z"/>
<path d="M2103 2633 c-8 -17 -8 -23 0 -23 15 0 75 40 62 41 -5 0 -19 2 -31 3
-13 2 -24 -6 -31 -21z"/>
<path d="M2675 2650 c-3 -5 -1 -10 4 -10 6 0 11 5 11 10 0 6 -2 10 -4 10 -3 0
-8 -4 -11 -10z"/>
<path d="M2911 2644 c0 -11 3 -14 6 -6 3 7 2 16 -1 19 -3 4 -6 -2 -5 -13z"/>
<path d="M2380 2631 c14 -27 27 -34 36 -20 4 7 3 9 -4 5 -6 -3 -13 3 -17 14
-3 11 -11 20 -16 20 -6 0 -6 -7 1 -19z"/>
<path d="M2733 2634 c4 -4 0 -19 -9 -33 l-17 -26 27 24 c31 29 30 27 9 35 -10
4 -14 4 -10 0z"/>
<path d="M1370 2609 c0 -5 5 -7 10 -4 6 3 10 8 10 11 0 2 -4 4 -10 4 -5 0 -10
-5 -10 -11z"/>
<path d="M1415 2609 c4 -5 1 -16 -5 -25 -10 -11 -16 -12 -26 -3 -9 7 -14 8
-14 1 0 -18 27 -21 49 -6 25 18 27 30 5 38 -9 3 -12 2 -9 -5z"/>
<path d="M2291 2606 c-11 -13 -12 -24 -4 -51 10 -30 8 -36 -13 -52 -28 -21
-30 -41 -9 -69 14 -18 14 -17 4 9 -11 24 -9 30 11 52 20 22 24 23 45 9 22 -14
35 -10 35 10 0 6 -5 4 -10 -4 -6 -9 -10 -10 -10 -3 0 6 5 15 11 18 6 4 7 14 3
24 -4 9 -6 26 -6 38 1 11 -5 23 -13 26 -9 4 -12 0 -10 -14 2 -10 0 -19 -5 -19
-5 0 -10 10 -12 22 -3 20 -4 20 -17 4z m32 -50 c12 -9 14 -16 8 -21 -6 -3 -11
0 -11 7 0 10 -3 9 -11 -2 -9 -13 -10 -13 -6 2 3 9 1 19 -6 22 -7 2 -7 5 -2 5
6 0 18 -6 28 -13z"/>
<path d="M2790 2585 c-18 -19 -31 -37 -29 -40 3 -2 21 11 39 30 18 19 31 37
29 40 -3 2 -21 -11 -39 -30z"/>
<path d="M2910 2600 c0 -5 5 -10 10 -10 6 0 10 5 10 10 0 6 -4 10 -10 10 -5 0
-10 -4 -10 -10z"/>
<path d="M2645 2580 c-3 -5 -1 -10 4 -10 6 0 11 5 11 10 0 6 -2 10 -4 10 -3 0
-8 -4 -11 -10z"/>
<path d="M2406 2558 c3 -4 9 -8 15 -8 5 0 9 4 9 8 0 5 -7 9 -15 9 -8 0 -12 -4
-9 -9z"/>
<path d="M2625 2537 c-4 -10 -5 -21 -1 -24 10 -10 18 4 13 24 -4 17 -4 17 -12
0z"/>
<path d="M2843 2526 c-17 -20 -17 -20 2 -6 19 15 19 15 0 -11 -13 -18 -22 -23
-27 -15 -4 6 -8 -5 -9 -24 -1 -19 -3 -47 -3 -62 -1 -17 4 -28 11 -28 7 0 10 6
7 14 -7 17 16 33 25 17 4 -7 22 14 44 51 35 59 36 63 17 66 -11 2 -20 7 -20
11 0 15 -30 7 -47 -13z m-16 -86 c-3 -21 -17 -40 -17 -22 0 13 11 42 16 42 2
0 3 -9 1 -20z"/>
<path d="M2522 2515 c-16 -14 -32 -35 -35 -47 -5 -16 1 -12 24 15 17 20 38 41
47 47 9 5 12 10 5 10 -6 0 -25 -11 -41 -25z"/>
<path d="M1484 2515 c-9 -23 3 -45 25 -45 23 0 35 28 20 46 -15 18 -38 18 -45
-1z m41 -15 c0 -8 -8 -16 -17 -18 -13 -2 -18 3 -18 18 0 15 5 20 18 18 9 -2
17 -10 17 -18z"/>
<path d="M2399 2494 c-19 -20 -20 -24 -6 -24 9 0 17 7 17 16 0 11 6 15 20 11
22 -6 28 8 6 16 -8 3 -24 -5 -37 -19z"/>
<path d="M1369 2493 c5 -10 21 -33 35 -52 l25 -34 -4 39 c-5 38 -26 64 -52 64
-10 0 -11 -5 -4 -17z"/>
<path d="M2194 2385 c0 -49 1 -71 3 -48 2 23 2 64 0 90 -2 26 -3 8 -3 -42z"/>
<path d="M2554 2439 c-3 -6 -18 -8 -33 -5 -17 4 -21 3 -13 -2 8 -5 13 -13 12
-18 -3 -19 17 -13 40 11 13 14 18 25 12 25 -6 0 -14 -5 -18 -11z"/>
<path d="M1162 2400 c-18 -11 -41 -34 -52 -52 -19 -32 -20 -52 -20 -698 0
-628 1 -667 19 -700 10 -19 33 -45 51 -58 l33 -22 946 0 c932 0 946 0 979 20
20 13 41 38 53 65 19 43 19 67 17 697 -3 638 -3 654 -24 688 -34 59 -76 80
-158 80 -71 0 -71 0 -96 -37 -14 -21 -54 -68 -89 -105 l-63 -68 101 0 101 0 0
-540 0 -540 -820 0 -820 0 0 540 0 540 107 0 106 0 -60 59 c-33 32 -75 79 -92
105 l-32 46 -77 0 c-59 0 -85 -5 -110 -20z m1958 -680 c24 -24 26 -67 3 -92
-20 -22 -70 -23 -95 -1 -40 36 -8 113 47 113 14 0 34 -9 45 -20z m-942 -667
c32 -27 37 -64 12 -96 -33 -41 -84 -37 -109 10 -18 34 -13 60 15 82 33 26 55
26 82 4z"/>
<path d="M1457 2403 c-9 -15 26 -31 48 -21 18 8 18 8 -3 4 -13 -2 -26 2 -31
11 -4 9 -11 11 -14 6z"/>
<path d="M1543 2400 c5 -21 -18 -41 -38 -33 -14 5 -16 2 -10 -17 5 -17 4 -21
-6 -15 -8 5 1 -8 20 -28 24 -26 37 -33 42 -25 6 9 10 8 15 -5 3 -9 10 -15 14
-12 5 3 11 1 15 -5 3 -5 14 -10 23 -9 14 0 14 2 2 6 -37 15 -48 49 -12 36 13
-5 12 -1 -4 18 -12 13 -31 42 -43 64 -12 22 -20 33 -18 25z m-3 -101 c0 -8 -7
-6 -20 6 -11 10 -17 22 -14 26 6 11 34 -15 34 -32z"/>
<path d="M2698 2385 c-16 -13 -28 -29 -28 -35 0 -5 -3 -9 -7 -9 -26 4 -36 -2
-25 -13 9 -9 21 -2 54 30 45 45 50 65 6 27z"/>
<path d="M2396 2393 l-28 -5 23 -16 c16 -11 24 -12 27 -4 2 7 10 12 18 12 8 0
14 5 14 10 0 10 -3 10 -54 3z"/>
<path d="M1450 2376 c0 -2 8 -10 18 -17 15 -13 16 -12 3 4 -13 16 -21 21 -21
13z"/>
<path d="M2265 2332 c-8 -37 -1 -52 23 -51 15 1 15 2 0 6 -20 5 -23 24 -8 39
5 5 6 15 1 23 -6 10 -11 5 -16 -17z"/>
<path d="M2399 2337 c5 -5 26 -7 47 -5 l39 3 -47 5 c-26 3 -43 1 -39 -3z"/>
<path d="M2770 2329 c0 -14 -26 -40 -33 -33 -3 3 -12 2 -21 -3 -10 -6 -12 -13
-6 -23 7 -12 15 -9 45 20 35 34 43 50 25 50 -5 0 -10 -5 -10 -11z"/>
<path d="M2533 2318 c-5 -7 -20 -33 -32 -58 l-22 -45 39 45 c28 31 36 48 28
53 -6 5 -2 7 12 4 12 -3 20 -1 16 4 -8 13 -30 11 -41 -3z"/>
<path d="M2405 2299 c-8 -25 -4 -31 15 -19 10 6 11 10 3 10 -7 0 -10 7 -7 15
4 8 4 15 1 15 -3 0 -9 -9 -12 -21z"/>
<path d="M2202 2260 c0 -14 2 -19 5 -12 2 6 2 18 0 25 -3 6 -5 1 -5 -13z"/>
<path d="M2295 2260 c-3 -4 7 -10 21 -13 14 -2 23 0 21 6 -4 13 -35 18 -42 7z"/>
<path d="M1656 2231 c-13 -12 -16 -13 -16 -1 0 11 -2 12 -12 1 -11 -10 -8 -16
12 -32 48 -37 89 -58 95 -48 4 5 13 9 21 9 11 0 13 -6 9 -20 -4 -12 -2 -20 5
-20 6 0 9 4 6 9 -3 5 1 12 10 15 8 3 12 10 9 16 -4 6 -11 7 -17 4 -8 -5 -9 -1
-5 10 4 10 7 20 7 22 0 3 5 2 11 -2 6 -3 3 5 -6 20 -10 14 -27 27 -39 28 -11
0 -33 2 -48 3 -15 1 -34 -5 -42 -14z m44 -7 c-15 -17 -17 -17 -23 -1 -3 8 3
14 15 14 16 2 17 -1 8 -13z m-3 -30 c-3 -3 -12 -4 -19 -1 -8 3 -5 6 6 6 11 1
17 -2 13 -5z"/>
<path d="M2598 2243 c-40 -6 -48 -53 -11 -67 21 -9 38 4 22 16 -10 7 -8 8 8 3
27 -7 38 8 17 25 -12 11 -12 15 -2 21 7 5 9 8 3 7 -5 0 -22 -3 -37 -5z"/>
<path d="M2440 2226 c0 -2 7 -7 16 -10 8 -3 12 -2 9 4 -6 10 -25 14 -25 6z"/>
<path d="M2258 2190 c29 -24 80 -34 127 -26 56 11 49 23 -10 18 -36 -3 -69 1
-97 12 l-43 16 23 -20z"/>
<path d="M2115 2147 c-10 -8 -15 -19 -12 -24 4 -6 -3 -13 -14 -16 -12 -3 -18
-10 -14 -16 3 -6 1 -11 -4 -11 -6 0 -11 3 -11 8 0 4 -25 5 -56 4 -34 -3 -54 0
-51 5 7 11 -109 10 -119 0 -4 -4 -14 -1 -23 6 -8 6 2 -10 24 -38 45 -58 61
-76 51 -57 -4 6 -2 12 5 12 6 0 9 -8 6 -20 -3 -10 1 -24 7 -29 13 -11 476 -17
476 -7 0 3 0 10 0 15 0 4 -11 6 -24 4 -13 -3 -27 0 -30 6 -9 14 -53 14 -58 0
-6 -17 -319 -13 -331 4 -7 9 -10 9 -14 0 -7 -19 -23 -16 -16 3 4 10 -1 22 -11
29 -11 9 -14 15 -6 20 6 4 8 15 5 25 -5 15 -2 17 15 13 12 -3 20 0 20 7 0 10
3 10 14 1 27 -23 195 -13 180 10 -3 5 1 9 10 9 8 0 23 3 33 7 16 6 16 5 5 -10
-18 -21 -7 -40 16 -28 9 5 28 7 42 5 14 -1 19 0 12 2 -6 3 -10 9 -7 14 3 5 -8
11 -25 15 -16 4 -30 10 -30 14 0 4 -10 7 -22 7 -13 -1 -22 4 -20 12 3 15 0 15
-23 -1z m20 -17 c3 -5 -1 -10 -10 -10 -9 0 -13 5 -10 10 3 6 8 10 10 10 2 0 7
-4 10 -10z m-246 -71 c1 -3 -6 -6 -14 -6 -10 0 -14 6 -10 15 3 10 0 12 -10 8
-8 -3 -15 -1 -15 4 0 5 8 10 18 12 14 3 29 -12 31 -33z"/>
<path d="M2215 2130 c3 -5 8 -10 11 -10 2 0 4 5 4 10 0 6 -5 10 -11 10 -5 0
-7 -4 -4 -10z"/>
<path d="M2415 2118 c-16 -6 -39 -15 -51 -20 -11 -5 -27 -9 -35 -8 -28 4 -62
0 -56 -7 4 -4 29 -6 57 -4 38 1 54 -3 70 -19 11 -11 18 -26 14 -33 -4 -7 14
11 39 38 26 29 42 54 37 59 -11 11 -42 -12 -35 -24 3 -5 -4 -6 -15 -3 -19 5
-20 6 -3 19 21 15 19 16 -22 2z"/>
<path d="M1910 1885 l0 -25 235 0 235 0 0 25 0 25 -235 0 -235 0 0 -25z"/>
<path d="M1605 1810 c-32 -33 -57 -62 -54 -64 3 -3 34 24 69 59 36 36 60 65
54 65 -5 0 -36 -27 -69 -60z"/>
<path d="M2815 1810 c-32 -33 -57 -62 -54 -64 3 -3 32 21 64 54 32 33 57 62
54 64 -3 3 -32 -21 -64 -54z"/>
<path d="M1450 1740 c0 -116 -4 -113 120 -108 l75 3 1 70 1 70 -6 -60 -6 -60
-82 -3 -83 -3 0 90 0 90 58 4 57 3 -67 2 -68 2 0 -100z"/>
<path d="M2660 1823 c0 -12 3 -14 8 -6 4 6 34 14 67 16 l60 3 -67 2 c-59 2
-68 0 -68 -15z"/>
<path d="M1912 1798 l3 -23 233 -3 232 -2 0 25 0 25 -236 0 -235 0 3 -22z"/>
<path d="M1511 1737 c-1 -38 -1 -38 36 -35 29 2 39 8 41 23 3 19 2 19 -12 2
-21 -27 -50 -17 -57 18 -6 29 -7 28 -8 -8z"/>
<path d="M2721 1733 c-1 -30 2 -33 27 -32 23 0 24 2 7 8 -11 4 -23 19 -26 32
-6 21 -7 20 -8 -8z"/>
<path d="M1733 1743 c26 -2 68 -2 95 0 26 2 4 3 -48 3 -52 0 -74 -1 -47 -3z"/>
<path d="M2468 1743 c29 -2 74 -2 100 0 26 2 2 3 -53 3 -55 0 -76 -1 -47 -3z"/>
<path d="M1931 1721 c-8 -5 -11 -16 -8 -25 6 -15 32 -16 229 -14 223 3 223 3
226 26 l3 22 -218 0 c-120 0 -224 -4 -232 -9z"/>
<path d="M2662 1678 c-2 -37 -1 -38 31 -37 29 2 29 2 5 6 -22 3 -28 10 -31 36
-4 31 -4 31 -5 -5z"/>
<path d="M2005 1630 c-12 -19 49 -67 93 -75 93 -15 192 20 192 70 0 13 -20 15
-139 15 -84 0 -142 -4 -146 -10z"/>
<path d="M1782 1594 c-15 -11 -22 -25 -22 -50 l0 -34 -125 0 -124 0 -3 -57 -3
-58 -35 0 -35 -1 -3 -72 -3 -72 83 2 83 2 -75 5 -75 6 0 55 0 55 75 5 c54 4
65 7 40 10 -34 5 -35 6 -38 58 l-3 52 120 0 121 0 2 -47 1 -48 6 45 6 45 110
0 110 0 6 -45 6 -45 1 52 2 52 -117 3 c-113 3 -118 4 -121 25 -6 41 28 61 109
62 40 0 75 3 77 6 3 3 -30 5 -74 5 -56 0 -86 -5 -102 -16z"/>
<path d="M2340 1600 c0 -6 38 -10 95 -10 91 0 96 -1 107 -24 22 -50 10 -56
-122 -56 l-120 0 0 -44 c0 -25 5 -48 10 -51 6 -4 10 12 10 40 l0 46 113 -3
112 -3 0 -50 c0 -49 0 -50 -35 -56 -24 -5 -12 -7 43 -8 42 0 77 3 77 8 0 5
-15 8 -32 7 -33 -1 -33 -1 -36 52 l-3 53 118 -3 118 -3 6 -45 6 -45 1 53 2 52
-125 0 -125 0 0 34 c0 53 -27 66 -132 66 -52 0 -88 -4 -88 -10z"/>
<path d="M1703 1383 c9 -2 23 -2 30 0 6 3 -1 5 -18 5 -16 0 -22 -2 -12 -5z"/>
<path d="M1793 1383 c9 -2 23 -2 30 0 6 3 -1 5 -18 5 -16 0 -22 -2 -12 -5z"/>
<path d="M1948 1383 c6 -2 18 -2 25 0 6 3 1 5 -13 5 -14 0 -19 -2 -12 -5z"/>
<path d="M2343 1383 c9 -2 23 -2 30 0 6 3 -1 5 -18 5 -16 0 -22 -2 -12 -5z"/>
<path d="M1480 1320 c0 -5 25 -10 55 -10 30 0 55 5 55 10 0 6 -25 10 -55 10
-30 0 -55 -4 -55 -10z"/>
<path d="M1778 1323 c12 -2 30 -2 40 0 9 3 -1 5 -23 4 -22 0 -30 -2 -17 -4z"/>
<path d="M2243 1323 c9 -2 25 -2 35 0 9 3 1 5 -18 5 -19 0 -27 -2 -17 -5z"/>
<path d="M2480 1320 c0 -5 32 -9 75 -9 41 1 75 5 75 10 0 5 -34 9 -75 9 -43 0
-75 -4 -75 -10z"/>
<path d="M2858 1323 c7 -3 16 -2 19 1 4 3 -2 6 -13 5 -11 0 -14 -3 -6 -6z"/>
<path d="M2480 1260 c0 -6 32 -10 78 -9 54 1 69 3 52 9 -36 12 -130 12 -130 0z"/>
<path d="M1723 1253 c20 -2 54 -2 75 0 20 2 3 4 -38 4 -41 0 -58 -2 -37 -4z"/>
<path d="M2018 1253 c12 -2 32 -2 45 0 12 2 2 4 -23 4 -25 0 -35 -2 -22 -4z"/>
<path d="M2248 1253 c12 -2 32 -2 45 0 12 2 2 4 -23 4 -25 0 -35 -2 -22 -4z"/>
<path d="M2748 1253 c6 -2 18 -2 25 0 6 3 1 5 -13 5 -14 0 -19 -2 -12 -5z"/>
<path d="M2828 1253 c12 -2 30 -2 40 0 9 3 -1 5 -23 4 -22 0 -30 -2 -17 -4z"/>
<path d="M1760 290 l0 -220 50 0 50 0 0 220 0 220 -50 0 -50 0 0 -220z"/>
<path d="M1921 503 c0 -5 40 -102 88 -218 l87 -210 50 -3 49 -3 88 213 c48
117 87 217 87 221 0 5 -21 7 -47 5 l-48 -3 -59 -147 c-32 -82 -62 -148 -65
-148 -4 0 -33 68 -65 150 l-59 150 -53 0 c-30 0 -54 -3 -53 -7z"/>
<path d="M2430 290 l0 -220 50 0 50 0 0 220 0 220 -50 0 -50 0 0 -220z"/>
</g>
</svg>
